<svg xmlns="http://www.w3.org/2000/svg" xmlns:xlink="http://www.w3.org/1999/xlink" width="500" zoomAndPan="magnify" viewBox="0 0 375 374.999991" height="500" preserveAspectRatio="xMidYMid meet" version="1.0"><defs><g/><clipPath id="96dcdb513c"><path d="M 95 80 L 280 80 L 280 255 L 95 255 Z M 95 80 " clip-rule="nonzero"/></clipPath><clipPath id="a0938b62cd"><path d="M 169.460938 41.859375 L 308.835938 129.449219 L 205.507812 293.867188 L 66.132812 206.277344 Z M 169.460938 41.859375 " clip-rule="nonzero"/></clipPath><clipPath id="76aa8147f0"><path d="M 250.109375 98.148438 L 276.15625 151.515625 C 281.269531 161.992188 280.605469 174.367188 274.402344 184.242188 L 239.964844 239.035156 C 233.761719 248.90625 222.898438 254.871094 211.238281 254.808594 L 151.855469 254.488281 C 140.375 254.425781 129.917969 247.855469 124.882812 237.535156 L 98.835938 184.167969 C 93.722656 173.691406 94.386719 161.316406 100.589844 151.445312 L 135.027344 96.648438 C 141.230469 86.777344 152.09375 80.8125 163.753906 80.875 L 223.136719 81.195312 C 234.617188 81.257812 245.074219 87.828125 250.109375 98.148438 Z M 250.109375 98.148438 " clip-rule="nonzero"/></clipPath><clipPath id="4ff8a286d4"><path d="M 0 0.640625 L 185 0.640625 L 185 174.878906 L 0 174.878906 Z M 0 0.640625 " clip-rule="nonzero"/></clipPath><clipPath id="4a978e8ef0"><path d="M 74.460938 -38.140625 L 213.835938 49.449219 L 110.507812 213.867188 L -28.867188 126.277344 Z M 74.460938 -38.140625 " clip-rule="nonzero"/></clipPath><clipPath id="6c8bb68e59"><path d="M 155.109375 18.148438 L 181.15625 71.515625 C 186.269531 81.992188 185.605469 94.367188 179.402344 104.242188 L 144.964844 159.035156 C 138.761719 168.90625 127.898438 174.871094 116.238281 174.808594 L 56.855469 174.488281 C 45.375 174.425781 34.917969 167.855469 29.882812 157.535156 L 3.835938 104.167969 C -1.277344 93.691406 -0.613281 81.316406 5.589844 71.445312 L 40.027344 16.648438 C 46.230469 6.777344 57.09375 0.8125 68.753906 0.875 L 128.136719 1.195312 C 139.617188 1.257812 150.074219 7.828125 155.109375 18.148438 Z M 155.109375 18.148438 " clip-rule="nonzero"/></clipPath><clipPath id="f3a6974ff7"><path d="M 77.199219 -42.496094 L 216.574219 45.09375 L 107.769531 218.222656 L -31.605469 130.632812 Z M 77.199219 -42.496094 " clip-rule="nonzero"/></clipPath><clipPath id="f2d58899b6"><path d="M 74.355469 -37.972656 L 213.726562 49.617188 L 110.640625 213.652344 L -28.734375 126.0625 Z M 74.355469 -37.972656 " clip-rule="nonzero"/></clipPath><radialGradient gradientTransform="matrix(0.84668, 0.532102, -0.532102, 0.84668, 77.1997, -42.499599)" gradientUnits="userSpaceOnUse" r="254.227482" cx="0" id="2cb4fdf000" cy="5.347982" fx="0" fy="5.347982"><stop stop-opacity="1" stop-color="rgb(54.862976%, 32.267761%, 99.980164%)" offset="0"/><stop stop-opacity="1" stop-color="rgb(54.788208%, 32.487488%, 99.940491%)" offset="0.00390625"/><stop stop-opacity="1" stop-color="rgb(54.714966%, 32.707214%, 99.902344%)" offset="0.0078125"/><stop stop-opacity="1" stop-color="rgb(54.641724%, 32.925415%, 99.864197%)" offset="0.0117188"/><stop stop-opacity="1" stop-color="rgb(54.568481%, 33.145142%, 99.82605%)" offset="0.015625"/><stop stop-opacity="1" stop-color="rgb(54.495239%, 33.363342%, 99.787903%)" offset="0.0195312"/><stop stop-opacity="1" stop-color="rgb(54.421997%, 33.583069%, 99.749756%)" offset="0.0234375"/><stop stop-opacity="1" stop-color="rgb(54.347229%, 33.80127%, 99.711609%)" offset="0.0273438"/><stop stop-opacity="1" stop-color="rgb(54.273987%, 34.020996%, 99.673462%)" offset="0.03125"/><stop stop-opacity="1" stop-color="rgb(54.200745%, 34.240723%, 99.635315%)" offset="0.0351562"/><stop stop-opacity="1" stop-color="rgb(54.127502%, 34.458923%, 99.597168%)" offset="0.0390625"/><stop stop-opacity="1" stop-color="rgb(54.05426%, 34.67865%, 99.559021%)" offset="0.0429688"/><stop stop-opacity="1" stop-color="rgb(53.979492%, 34.896851%, 99.519348%)" offset="0.046875"/><stop stop-opacity="1" stop-color="rgb(53.90625%, 35.116577%, 99.481201%)" offset="0.0507812"/><stop stop-opacity="1" stop-color="rgb(53.833008%, 35.334778%, 99.443054%)" offset="0.0546875"/><stop stop-opacity="1" stop-color="rgb(53.759766%, 35.554504%, 99.404907%)" offset="0.0585938"/><stop stop-opacity="1" stop-color="rgb(53.686523%, 35.772705%, 99.36676%)" offset="0.0625"/><stop stop-opacity="1" stop-color="rgb(53.613281%, 35.992432%, 99.328613%)" offset="0.0664062"/><stop stop-opacity="1" stop-color="rgb(53.538513%, 36.212158%, 99.290466%)" offset="0.0703125"/><stop stop-opacity="1" stop-color="rgb(53.465271%, 36.430359%, 99.252319%)" offset="0.0742188"/><stop stop-opacity="1" stop-color="rgb(53.392029%, 36.650085%, 99.214172%)" offset="0.078125"/><stop stop-opacity="1" stop-color="rgb(53.318787%, 36.868286%, 99.176025%)" offset="0.0820312"/><stop stop-opacity="1" stop-color="rgb(53.245544%, 37.088013%, 99.137878%)" offset="0.0859375"/><stop stop-opacity="1" stop-color="rgb(53.170776%, 37.306213%, 99.098206%)" offset="0.0898438"/><stop stop-opacity="1" stop-color="rgb(53.097534%, 37.52594%, 99.060059%)" offset="0.09375"/><stop stop-opacity="1" stop-color="rgb(53.024292%, 37.745667%, 99.021912%)" offset="0.0976562"/><stop stop-opacity="1" stop-color="rgb(52.95105%, 37.963867%, 98.983765%)" offset="0.101562"/><stop stop-opacity="1" stop-color="rgb(52.877808%, 38.183594%, 98.945618%)" offset="0.105469"/><stop stop-opacity="1" stop-color="rgb(52.804565%, 38.401794%, 98.907471%)" offset="0.109375"/><stop stop-opacity="1" stop-color="rgb(52.729797%, 38.621521%, 98.869324%)" offset="0.113281"/><stop stop-opacity="1" stop-color="rgb(52.656555%, 38.839722%, 98.831177%)" offset="0.117188"/><stop stop-opacity="1" stop-color="rgb(52.583313%, 39.059448%, 98.79303%)" offset="0.121094"/><stop stop-opacity="1" stop-color="rgb(52.510071%, 39.279175%, 98.754883%)" offset="0.125"/><stop stop-opacity="1" stop-color="rgb(52.436829%, 39.497375%, 98.716736%)" offset="0.128906"/><stop stop-opacity="1" stop-color="rgb(52.362061%, 39.717102%, 98.678589%)" offset="0.132812"/><stop stop-opacity="1" stop-color="rgb(52.288818%, 39.935303%, 98.638916%)" offset="0.136719"/><stop stop-opacity="1" stop-color="rgb(52.215576%, 40.155029%, 98.600769%)" offset="0.140625"/><stop stop-opacity="1" stop-color="rgb(52.142334%, 40.37323%, 98.562622%)" offset="0.144531"/><stop stop-opacity="1" stop-color="rgb(52.069092%, 40.592957%, 98.524475%)" offset="0.148438"/><stop stop-opacity="1" stop-color="rgb(51.99585%, 40.811157%, 98.486328%)" offset="0.152344"/><stop stop-opacity="1" stop-color="rgb(51.921082%, 41.030884%, 98.448181%)" offset="0.15625"/><stop stop-opacity="1" stop-color="rgb(51.847839%, 41.25061%, 98.410034%)" offset="0.160156"/><stop stop-opacity="1" stop-color="rgb(51.774597%, 41.468811%, 98.371887%)" offset="0.164062"/><stop stop-opacity="1" stop-color="rgb(51.701355%, 41.688538%, 98.33374%)" offset="0.167969"/><stop stop-opacity="1" stop-color="rgb(51.628113%, 41.906738%, 98.295593%)" offset="0.171875"/><stop stop-opacity="1" stop-color="rgb(51.554871%, 42.126465%, 98.257446%)" offset="0.175781"/><stop stop-opacity="1" stop-color="rgb(51.480103%, 42.344666%, 98.217773%)" offset="0.179688"/><stop stop-opacity="1" stop-color="rgb(51.40686%, 42.564392%, 98.179626%)" offset="0.183594"/><stop stop-opacity="1" stop-color="rgb(51.333618%, 42.784119%, 98.141479%)" offset="0.1875"/><stop stop-opacity="1" stop-color="rgb(51.260376%, 43.002319%, 98.103333%)" offset="0.191406"/><stop stop-opacity="1" stop-color="rgb(51.187134%, 43.222046%, 98.065186%)" offset="0.195312"/><stop stop-opacity="1" stop-color="rgb(51.112366%, 43.440247%, 98.027039%)" offset="0.199219"/><stop stop-opacity="1" stop-color="rgb(51.039124%, 43.659973%, 97.988892%)" offset="0.203125"/><stop stop-opacity="1" stop-color="rgb(50.965881%, 43.878174%, 97.950745%)" offset="0.207031"/><stop stop-opacity="1" stop-color="rgb(50.892639%, 44.0979%, 97.912598%)" offset="0.210938"/><stop stop-opacity="1" stop-color="rgb(50.819397%, 44.317627%, 97.874451%)" offset="0.214844"/><stop stop-opacity="1" stop-color="rgb(50.746155%, 44.535828%, 97.836304%)" offset="0.21875"/><stop stop-opacity="1" stop-color="rgb(50.671387%, 44.755554%, 97.796631%)" offset="0.222656"/><stop stop-opacity="1" stop-color="rgb(50.598145%, 44.973755%, 97.758484%)" offset="0.226562"/><stop stop-opacity="1" stop-color="rgb(50.524902%, 45.193481%, 97.720337%)" offset="0.230469"/><stop stop-opacity="1" stop-color="rgb(50.45166%, 45.411682%, 97.68219%)" offset="0.234375"/><stop stop-opacity="1" stop-color="rgb(50.378418%, 45.631409%, 97.644043%)" offset="0.238281"/><stop stop-opacity="1" stop-color="rgb(50.30365%, 45.849609%, 97.605896%)" offset="0.242188"/><stop stop-opacity="1" stop-color="rgb(50.230408%, 46.069336%, 97.567749%)" offset="0.246094"/><stop stop-opacity="1" stop-color="rgb(50.157166%, 46.289062%, 97.529602%)" offset="0.25"/><stop stop-opacity="1" stop-color="rgb(50.083923%, 46.507263%, 97.491455%)" offset="0.253906"/><stop stop-opacity="1" stop-color="rgb(50.010681%, 46.72699%, 97.453308%)" offset="0.257812"/><stop stop-opacity="1" stop-color="rgb(49.937439%, 46.94519%, 97.415161%)" offset="0.261719"/><stop stop-opacity="1" stop-color="rgb(49.862671%, 47.164917%, 97.377014%)" offset="0.265625"/><stop stop-opacity="1" stop-color="rgb(49.789429%, 47.383118%, 97.337341%)" offset="0.269531"/><stop stop-opacity="1" stop-color="rgb(49.716187%, 47.602844%, 97.299194%)" offset="0.273438"/><stop stop-opacity="1" stop-color="rgb(49.642944%, 47.822571%, 97.261047%)" offset="0.277344"/><stop stop-opacity="1" stop-color="rgb(49.569702%, 48.040771%, 97.2229%)" offset="0.28125"/><stop stop-opacity="1" stop-color="rgb(49.49646%, 48.260498%, 97.184753%)" offset="0.285156"/><stop stop-opacity="1" stop-color="rgb(49.421692%, 48.478699%, 97.146606%)" offset="0.289062"/><stop stop-opacity="1" stop-color="rgb(49.34845%, 48.698425%, 97.108459%)" offset="0.292969"/><stop stop-opacity="1" stop-color="rgb(49.275208%, 48.916626%, 97.070312%)" offset="0.296875"/><stop stop-opacity="1" stop-color="rgb(49.201965%, 49.136353%, 97.032166%)" offset="0.300781"/><stop stop-opacity="1" stop-color="rgb(49.128723%, 49.354553%, 96.994019%)" offset="0.304688"/><stop stop-opacity="1" stop-color="rgb(49.053955%, 49.57428%, 96.955872%)" offset="0.308594"/><stop stop-opacity="1" stop-color="rgb(48.980713%, 49.794006%, 96.916199%)" offset="0.3125"/><stop stop-opacity="1" stop-color="rgb(48.907471%, 50.012207%, 96.878052%)" offset="0.316406"/><stop stop-opacity="1" stop-color="rgb(48.834229%, 50.231934%, 96.839905%)" offset="0.320312"/><stop stop-opacity="1" stop-color="rgb(48.760986%, 50.450134%, 96.801758%)" offset="0.324219"/><stop stop-opacity="1" stop-color="rgb(48.687744%, 50.669861%, 96.763611%)" offset="0.328125"/><stop stop-opacity="1" stop-color="rgb(48.612976%, 50.888062%, 96.725464%)" offset="0.332031"/><stop stop-opacity="1" stop-color="rgb(48.539734%, 51.107788%, 96.687317%)" offset="0.335938"/><stop stop-opacity="1" stop-color="rgb(48.466492%, 51.327515%, 96.64917%)" offset="0.339844"/><stop stop-opacity="1" stop-color="rgb(48.39325%, 51.545715%, 96.611023%)" offset="0.34375"/><stop stop-opacity="1" stop-color="rgb(48.320007%, 51.765442%, 96.572876%)" offset="0.347656"/><stop stop-opacity="1" stop-color="rgb(48.245239%, 51.983643%, 96.534729%)" offset="0.351562"/><stop stop-opacity="1" stop-color="rgb(48.171997%, 52.203369%, 96.495056%)" offset="0.355469"/><stop stop-opacity="1" stop-color="rgb(48.098755%, 52.42157%, 96.456909%)" offset="0.359375"/><stop stop-opacity="1" stop-color="rgb(48.025513%, 52.641296%, 96.418762%)" offset="0.363281"/><stop stop-opacity="1" stop-color="rgb(47.952271%, 52.861023%, 96.380615%)" offset="0.367188"/><stop stop-opacity="1" stop-color="rgb(47.879028%, 53.079224%, 96.342468%)" offset="0.371094"/><stop stop-opacity="1" stop-color="rgb(47.80426%, 53.29895%, 96.304321%)" offset="0.375"/><stop stop-opacity="1" stop-color="rgb(47.731018%, 53.517151%, 96.266174%)" offset="0.378906"/><stop stop-opacity="1" stop-color="rgb(47.657776%, 53.736877%, 96.228027%)" offset="0.382812"/><stop stop-opacity="1" stop-color="rgb(47.584534%, 53.955078%, 96.18988%)" offset="0.386719"/><stop stop-opacity="1" stop-color="rgb(47.511292%, 54.174805%, 96.151733%)" offset="0.390625"/><stop stop-opacity="1" stop-color="rgb(47.436523%, 54.393005%, 96.113586%)" offset="0.394531"/><stop stop-opacity="1" stop-color="rgb(47.363281%, 54.612732%, 96.075439%)" offset="0.398438"/><stop stop-opacity="1" stop-color="rgb(47.290039%, 54.832458%, 96.035767%)" offset="0.402344"/><stop stop-opacity="1" stop-color="rgb(47.216797%, 55.050659%, 95.99762%)" offset="0.40625"/><stop stop-opacity="1" stop-color="rgb(47.143555%, 55.270386%, 95.959473%)" offset="0.410156"/><stop stop-opacity="1" stop-color="rgb(47.070312%, 55.488586%, 95.921326%)" offset="0.414062"/><stop stop-opacity="1" stop-color="rgb(46.995544%, 55.708313%, 95.883179%)" offset="0.417969"/><stop stop-opacity="1" stop-color="rgb(46.922302%, 55.926514%, 95.845032%)" offset="0.421875"/><stop stop-opacity="1" stop-color="rgb(46.84906%, 56.14624%, 95.806885%)" offset="0.425781"/><stop stop-opacity="1" stop-color="rgb(46.775818%, 56.365967%, 95.768738%)" offset="0.429688"/><stop stop-opacity="1" stop-color="rgb(46.702576%, 56.584167%, 95.730591%)" offset="0.433594"/><stop stop-opacity="1" stop-color="rgb(46.629333%, 56.803894%, 95.692444%)" offset="0.4375"/><stop stop-opacity="1" stop-color="rgb(46.554565%, 57.022095%, 95.654297%)" offset="0.441406"/><stop stop-opacity="1" stop-color="rgb(46.481323%, 57.241821%, 95.614624%)" offset="0.445312"/><stop stop-opacity="1" stop-color="rgb(46.408081%, 57.460022%, 95.576477%)" offset="0.449219"/><stop stop-opacity="1" stop-color="rgb(46.334839%, 57.679749%, 95.53833%)" offset="0.453125"/><stop stop-opacity="1" stop-color="rgb(46.261597%, 57.899475%, 95.500183%)" offset="0.457031"/><stop stop-opacity="1" stop-color="rgb(46.186829%, 58.117676%, 95.462036%)" offset="0.460938"/><stop stop-opacity="1" stop-color="rgb(46.113586%, 58.337402%, 95.423889%)" offset="0.464844"/><stop stop-opacity="1" stop-color="rgb(46.040344%, 58.555603%, 95.385742%)" offset="0.46875"/><stop stop-opacity="1" stop-color="rgb(45.967102%, 58.77533%, 95.347595%)" offset="0.472656"/><stop stop-opacity="1" stop-color="rgb(45.89386%, 58.99353%, 95.309448%)" offset="0.476562"/><stop stop-opacity="1" stop-color="rgb(45.820618%, 59.213257%, 95.271301%)" offset="0.480469"/><stop stop-opacity="1" stop-color="rgb(45.74585%, 59.431458%, 95.233154%)" offset="0.484375"/><stop stop-opacity="1" stop-color="rgb(45.672607%, 59.651184%, 95.195007%)" offset="0.488281"/><stop stop-opacity="1" stop-color="rgb(45.599365%, 59.870911%, 95.155334%)" offset="0.492188"/><stop stop-opacity="1" stop-color="rgb(45.526123%, 60.089111%, 95.117188%)" offset="0.496094"/><stop stop-opacity="1" stop-color="rgb(45.452881%, 60.308838%, 95.079041%)" offset="0.5"/><stop stop-opacity="1" stop-color="rgb(45.378113%, 60.527039%, 95.040894%)" offset="0.503906"/><stop stop-opacity="1" stop-color="rgb(45.304871%, 60.746765%, 95.002747%)" offset="0.507812"/><stop stop-opacity="1" stop-color="rgb(45.231628%, 60.964966%, 94.9646%)" offset="0.511719"/><stop stop-opacity="1" stop-color="rgb(45.158386%, 61.184692%, 94.926453%)" offset="0.515625"/><stop stop-opacity="1" stop-color="rgb(45.085144%, 61.404419%, 94.888306%)" offset="0.519531"/><stop stop-opacity="1" stop-color="rgb(45.011902%, 61.62262%, 94.850159%)" offset="0.523438"/><stop stop-opacity="1" stop-color="rgb(44.937134%, 61.842346%, 94.812012%)" offset="0.527344"/><stop stop-opacity="1" stop-color="rgb(44.863892%, 62.060547%, 94.773865%)" offset="0.53125"/><stop stop-opacity="1" stop-color="rgb(44.790649%, 62.280273%, 94.734192%)" offset="0.535156"/><stop stop-opacity="1" stop-color="rgb(44.717407%, 62.498474%, 94.696045%)" offset="0.539062"/><stop stop-opacity="1" stop-color="rgb(44.644165%, 62.718201%, 94.657898%)" offset="0.542969"/><stop stop-opacity="1" stop-color="rgb(44.569397%, 62.937927%, 94.619751%)" offset="0.546875"/><stop stop-opacity="1" stop-color="rgb(44.496155%, 63.156128%, 94.581604%)" offset="0.550781"/><stop stop-opacity="1" stop-color="rgb(44.422913%, 63.375854%, 94.543457%)" offset="0.554688"/><stop stop-opacity="1" stop-color="rgb(44.34967%, 63.594055%, 94.50531%)" offset="0.558594"/><stop stop-opacity="1" stop-color="rgb(44.276428%, 63.813782%, 94.467163%)" offset="0.5625"/><stop stop-opacity="1" stop-color="rgb(44.203186%, 64.031982%, 94.429016%)" offset="0.566406"/><stop stop-opacity="1" stop-color="rgb(44.128418%, 64.251709%, 94.390869%)" offset="0.570312"/><stop stop-opacity="1" stop-color="rgb(44.055176%, 64.46991%, 94.352722%)" offset="0.574219"/><stop stop-opacity="1" stop-color="rgb(43.981934%, 64.689636%, 94.313049%)" offset="0.578125"/><stop stop-opacity="1" stop-color="rgb(43.908691%, 64.909363%, 94.274902%)" offset="0.582031"/><stop stop-opacity="1" stop-color="rgb(43.835449%, 65.127563%, 94.236755%)" offset="0.585938"/><stop stop-opacity="1" stop-color="rgb(43.762207%, 65.34729%, 94.198608%)" offset="0.589844"/><stop stop-opacity="1" stop-color="rgb(43.687439%, 65.565491%, 94.160461%)" offset="0.59375"/><stop stop-opacity="1" stop-color="rgb(43.614197%, 65.785217%, 94.122314%)" offset="0.597656"/><stop stop-opacity="1" stop-color="rgb(43.540955%, 66.003418%, 94.084167%)" offset="0.601562"/><stop stop-opacity="1" stop-color="rgb(43.467712%, 66.223145%, 94.046021%)" offset="0.605469"/><stop stop-opacity="1" stop-color="rgb(43.39447%, 66.442871%, 94.007874%)" offset="0.609375"/><stop stop-opacity="1" stop-color="rgb(43.319702%, 66.661072%, 93.969727%)" offset="0.613281"/><stop stop-opacity="1" stop-color="rgb(43.24646%, 66.880798%, 93.93158%)" offset="0.617188"/><stop stop-opacity="1" stop-color="rgb(43.173218%, 67.098999%, 93.893433%)" offset="0.621094"/><stop stop-opacity="1" stop-color="rgb(43.099976%, 67.318726%, 93.85376%)" offset="0.625"/><stop stop-opacity="1" stop-color="rgb(43.026733%, 67.536926%, 93.815613%)" offset="0.628906"/><stop stop-opacity="1" stop-color="rgb(42.953491%, 67.756653%, 93.777466%)" offset="0.632812"/><stop stop-opacity="1" stop-color="rgb(42.878723%, 67.976379%, 93.739319%)" offset="0.636719"/><stop stop-opacity="1" stop-color="rgb(42.805481%, 68.19458%, 93.701172%)" offset="0.640625"/><stop stop-opacity="1" stop-color="rgb(42.732239%, 68.414307%, 93.663025%)" offset="0.644531"/><stop stop-opacity="1" stop-color="rgb(42.658997%, 68.632507%, 93.624878%)" offset="0.648438"/><stop stop-opacity="1" stop-color="rgb(42.585754%, 68.852234%, 93.586731%)" offset="0.652344"/><stop stop-opacity="1" stop-color="rgb(42.510986%, 69.070435%, 93.548584%)" offset="0.65625"/><stop stop-opacity="1" stop-color="rgb(42.437744%, 69.290161%, 93.510437%)" offset="0.660156"/><stop stop-opacity="1" stop-color="rgb(42.364502%, 69.508362%, 93.47229%)" offset="0.664062"/><stop stop-opacity="1" stop-color="rgb(42.29126%, 69.728088%, 93.432617%)" offset="0.667969"/><stop stop-opacity="1" stop-color="rgb(42.218018%, 69.947815%, 93.39447%)" offset="0.671875"/><stop stop-opacity="1" stop-color="rgb(42.144775%, 70.166016%, 93.356323%)" offset="0.675781"/><stop stop-opacity="1" stop-color="rgb(42.070007%, 70.385742%, 93.318176%)" offset="0.679688"/><stop stop-opacity="1" stop-color="rgb(41.996765%, 70.603943%, 93.280029%)" offset="0.683594"/><stop stop-opacity="1" stop-color="rgb(41.923523%, 70.823669%, 93.241882%)" offset="0.6875"/><stop stop-opacity="1" stop-color="rgb(41.850281%, 71.04187%, 93.203735%)" offset="0.691406"/><stop stop-opacity="1" stop-color="rgb(41.777039%, 71.261597%, 93.165588%)" offset="0.695312"/><stop stop-opacity="1" stop-color="rgb(41.703796%, 71.481323%, 93.127441%)" offset="0.699219"/><stop stop-opacity="1" stop-color="rgb(41.629028%, 71.699524%, 93.089294%)" offset="0.703125"/><stop stop-opacity="1" stop-color="rgb(41.555786%, 71.91925%, 93.051147%)" offset="0.707031"/><stop stop-opacity="1" stop-color="rgb(41.482544%, 72.137451%, 93.011475%)" offset="0.710938"/><stop stop-opacity="1" stop-color="rgb(41.409302%, 72.357178%, 92.973328%)" offset="0.714844"/><stop stop-opacity="1" stop-color="rgb(41.33606%, 72.575378%, 92.935181%)" offset="0.71875"/><stop stop-opacity="1" stop-color="rgb(41.261292%, 72.795105%, 92.897034%)" offset="0.722656"/><stop stop-opacity="1" stop-color="rgb(41.188049%, 73.013306%, 92.858887%)" offset="0.726562"/><stop stop-opacity="1" stop-color="rgb(41.114807%, 73.233032%, 92.82074%)" offset="0.730469"/><stop stop-opacity="1" stop-color="rgb(41.041565%, 73.452759%, 92.782593%)" offset="0.734375"/><stop stop-opacity="1" stop-color="rgb(40.968323%, 73.670959%, 92.744446%)" offset="0.738281"/><stop stop-opacity="1" stop-color="rgb(40.895081%, 73.890686%, 92.706299%)" offset="0.742188"/><stop stop-opacity="1" stop-color="rgb(40.820312%, 74.108887%, 92.668152%)" offset="0.746094"/><stop stop-opacity="1" stop-color="rgb(40.74707%, 74.328613%, 92.630005%)" offset="0.75"/><stop stop-opacity="1" stop-color="rgb(40.673828%, 74.546814%, 92.591858%)" offset="0.753906"/><stop stop-opacity="1" stop-color="rgb(40.600586%, 74.766541%, 92.552185%)" offset="0.757812"/><stop stop-opacity="1" stop-color="rgb(40.527344%, 74.986267%, 92.514038%)" offset="0.761719"/><stop stop-opacity="1" stop-color="rgb(40.452576%, 75.204468%, 92.475891%)" offset="0.765625"/><stop stop-opacity="1" stop-color="rgb(40.379333%, 75.424194%, 92.437744%)" offset="0.769531"/><stop stop-opacity="1" stop-color="rgb(40.306091%, 75.642395%, 92.399597%)" offset="0.773438"/><stop stop-opacity="1" stop-color="rgb(40.232849%, 75.862122%, 92.36145%)" offset="0.777344"/><stop stop-opacity="1" stop-color="rgb(40.159607%, 76.080322%, 92.323303%)" offset="0.78125"/><stop stop-opacity="1" stop-color="rgb(40.086365%, 76.300049%, 92.285156%)" offset="0.785156"/><stop stop-opacity="1" stop-color="rgb(40.011597%, 76.519775%, 92.247009%)" offset="0.789062"/><stop stop-opacity="1" stop-color="rgb(39.938354%, 76.737976%, 92.208862%)" offset="0.792969"/><stop stop-opacity="1" stop-color="rgb(39.865112%, 76.957703%, 92.170715%)" offset="0.796875"/><stop stop-opacity="1" stop-color="rgb(39.79187%, 77.175903%, 92.131042%)" offset="0.800781"/><stop stop-opacity="1" stop-color="rgb(39.718628%, 77.39563%, 92.092896%)" offset="0.804688"/><stop stop-opacity="1" stop-color="rgb(39.64386%, 77.613831%, 92.054749%)" offset="0.808594"/><stop stop-opacity="1" stop-color="rgb(39.570618%, 77.833557%, 92.016602%)" offset="0.8125"/><stop stop-opacity="1" stop-color="rgb(39.497375%, 78.051758%, 91.978455%)" offset="0.816406"/><stop stop-opacity="1" stop-color="rgb(39.424133%, 78.271484%, 91.940308%)" offset="0.820312"/><stop stop-opacity="1" stop-color="rgb(39.350891%, 78.491211%, 91.902161%)" offset="0.824219"/><stop stop-opacity="1" stop-color="rgb(39.277649%, 78.709412%, 91.864014%)" offset="0.828125"/><stop stop-opacity="1" stop-color="rgb(39.202881%, 78.929138%, 91.825867%)" offset="0.832031"/><stop stop-opacity="1" stop-color="rgb(39.129639%, 79.147339%, 91.78772%)" offset="0.835938"/><stop stop-opacity="1" stop-color="rgb(39.056396%, 79.367065%, 91.749573%)" offset="0.839844"/><stop stop-opacity="1" stop-color="rgb(38.983154%, 79.585266%, 91.7099%)" offset="0.84375"/><stop stop-opacity="1" stop-color="rgb(38.909912%, 79.804993%, 91.671753%)" offset="0.847656"/><stop stop-opacity="1" stop-color="rgb(38.83667%, 80.024719%, 91.633606%)" offset="0.851562"/><stop stop-opacity="1" stop-color="rgb(38.761902%, 80.24292%, 91.595459%)" offset="0.855469"/><stop stop-opacity="1" stop-color="rgb(38.68866%, 80.462646%, 91.557312%)" offset="0.859375"/><stop stop-opacity="1" stop-color="rgb(38.615417%, 80.680847%, 91.519165%)" offset="0.863281"/><stop stop-opacity="1" stop-color="rgb(38.542175%, 80.900574%, 91.481018%)" offset="0.867188"/><stop stop-opacity="1" stop-color="rgb(38.468933%, 81.118774%, 91.442871%)" offset="0.871094"/><stop stop-opacity="1" stop-color="rgb(38.394165%, 81.338501%, 91.404724%)" offset="0.875"/><stop stop-opacity="1" stop-color="rgb(38.320923%, 81.558228%, 91.366577%)" offset="0.878906"/><stop stop-opacity="1" stop-color="rgb(38.247681%, 81.776428%, 91.32843%)" offset="0.882812"/><stop stop-opacity="1" stop-color="rgb(38.174438%, 81.996155%, 91.290283%)" offset="0.886719"/><stop stop-opacity="1" stop-color="rgb(38.101196%, 82.214355%, 91.25061%)" offset="0.890625"/><stop stop-opacity="1" stop-color="rgb(38.027954%, 82.434082%, 91.212463%)" offset="0.894531"/><stop stop-opacity="1" stop-color="rgb(37.953186%, 82.652283%, 91.174316%)" offset="0.898438"/><stop stop-opacity="1" stop-color="rgb(37.879944%, 82.872009%, 91.136169%)" offset="0.902344"/><stop stop-opacity="1" stop-color="rgb(37.806702%, 83.09021%, 91.098022%)" offset="0.90625"/><stop stop-opacity="1" stop-color="rgb(37.733459%, 83.309937%, 91.059875%)" offset="0.910156"/><stop stop-opacity="1" stop-color="rgb(37.660217%, 83.529663%, 91.021729%)" offset="0.914062"/><stop stop-opacity="1" stop-color="rgb(37.585449%, 83.747864%, 90.983582%)" offset="0.917969"/><stop stop-opacity="1" stop-color="rgb(37.512207%, 83.96759%, 90.945435%)" offset="0.921875"/><stop stop-opacity="1" stop-color="rgb(37.438965%, 84.185791%, 90.907288%)" offset="0.925781"/><stop stop-opacity="1" stop-color="rgb(37.365723%, 84.405518%, 90.869141%)" offset="0.929688"/><stop stop-opacity="1" stop-color="rgb(37.29248%, 84.623718%, 90.829468%)" offset="0.933594"/><stop stop-opacity="1" stop-color="rgb(37.219238%, 84.843445%, 90.791321%)" offset="0.9375"/><stop stop-opacity="1" stop-color="rgb(37.14447%, 85.063171%, 90.753174%)" offset="0.941406"/><stop stop-opacity="1" stop-color="rgb(37.071228%, 85.281372%, 90.715027%)" offset="0.945312"/><stop stop-opacity="1" stop-color="rgb(36.997986%, 85.501099%, 90.67688%)" offset="0.949219"/><stop stop-opacity="1" stop-color="rgb(36.924744%, 85.719299%, 90.638733%)" offset="0.953125"/><stop stop-opacity="1" stop-color="rgb(36.851501%, 85.939026%, 90.600586%)" offset="0.957031"/><stop stop-opacity="1" stop-color="rgb(36.778259%, 86.157227%, 90.562439%)" offset="0.960938"/><stop stop-opacity="1" stop-color="rgb(36.703491%, 86.376953%, 90.524292%)" offset="0.964844"/><stop stop-opacity="1" stop-color="rgb(36.630249%, 86.59668%, 90.486145%)" offset="0.96875"/><stop stop-opacity="1" stop-color="rgb(36.557007%, 86.81488%, 90.447998%)" offset="0.972656"/><stop stop-opacity="1" stop-color="rgb(36.483765%, 87.034607%, 90.409851%)" offset="0.976562"/><stop stop-opacity="1" stop-color="rgb(36.410522%, 87.252808%, 90.370178%)" offset="0.980469"/><stop stop-opacity="1" stop-color="rgb(36.335754%, 87.472534%, 90.332031%)" offset="0.984375"/><stop stop-opacity="1" stop-color="rgb(36.262512%, 87.690735%, 90.293884%)" offset="0.988281"/><stop stop-opacity="1" stop-color="rgb(36.18927%, 87.910461%, 90.255737%)" offset="0.992188"/><stop stop-opacity="1" stop-color="rgb(36.116028%, 88.128662%, 90.21759%)" offset="0.996094"/><stop stop-opacity="1" stop-color="rgb(36.079407%, 88.238525%, 90.19928%)" offset="1"/></radialGradient><clipPath id="cfbd6f73ee"><rect x="0" width="185" y="0" height="175"/></clipPath><clipPath id="19a33d5b8c"><path d="M 164.8125 166.648438 L 168.378906 166.648438 L 168.378906 169.710938 L 164.8125 169.710938 Z M 164.8125 166.648438 " clip-rule="nonzero"/></clipPath><clipPath id="b616b0be25"><path d="M 168.375 167.773438 C 166.800781 170.25 165.300781 169.800781 165 169.273438 C 164.625 168.75 164.925781 167.175781 165.449219 166.800781 C 165.898438 166.425781 167.925781 166.949219 167.925781 166.949219 " clip-rule="nonzero"/></clipPath><clipPath id="580eddf282"><path d="M 0.8125 0.648438 L 4.378906 0.648438 L 4.378906 3.710938 L 0.8125 3.710938 Z M 0.8125 0.648438 " clip-rule="nonzero"/></clipPath><clipPath id="525609ea67"><path d="M 4.375 1.773438 C 2.800781 4.25 1.300781 3.800781 1 3.273438 C 0.625 2.75 0.925781 1.175781 1.449219 0.800781 C 1.898438 0.425781 3.925781 0.949219 3.925781 0.949219 " clip-rule="nonzero"/></clipPath><clipPath id="1a21e45636"><rect x="0" width="5" y="0" height="4"/></clipPath><clipPath id="6cdecf97b7"><path d="M 140.339844 143.042969 L 173.082031 143.042969 L 173.082031 190.265625 L 140.339844 190.265625 Z M 140.339844 143.042969 " clip-rule="nonzero"/></clipPath><clipPath id="2a737360c2"><path d="M 140.550781 185.925781 C 149.699219 165.75 153.074219 159.675781 155.476562 156 C 156.976562 153.675781 157.800781 152.398438 159.601562 150.601562 C 161.925781 148.199219 166.125 143.925781 168.449219 143.324219 C 169.726562 142.949219 170.925781 143.324219 171.675781 143.851562 C 172.351562 144.226562 172.726562 145.050781 172.949219 145.726562 C 173.101562 146.398438 173.175781 147.226562 172.800781 147.898438 C 172.425781 148.726562 171.226562 149.773438 170.324219 150 C 169.574219 150.226562 168.75 150.148438 168.074219 149.773438 C 167.324219 149.324219 166.273438 148.125 166.125 147.226562 C 165.976562 146.25 166.574219 144.75 167.175781 144.074219 C 167.699219 143.550781 168.449219 143.175781 169.199219 143.175781 C 170.101562 143.101562 171.601562 143.699219 172.199219 144.375 C 172.800781 144.898438 173.023438 145.726562 173.023438 146.476562 C 173.101562 147.148438 173.023438 147.75 172.5 148.574219 C 171.226562 150.523438 165.601562 154.199219 163.648438 156.226562 C 162.601562 157.351562 162.375 157.800781 161.476562 159.226562 C 159.523438 162.148438 155.773438 168.675781 153.148438 173.550781 C 150.523438 178.574219 147.75 186.898438 145.875 189.074219 C 145.125 189.824219 144.675781 190.125 144 190.199219 C 143.324219 190.351562 142.425781 190.199219 141.824219 189.824219 C 141.226562 189.523438 140.699219 188.773438 140.476562 188.175781 C 140.25 187.5 140.550781 185.925781 140.550781 185.925781 " clip-rule="nonzero"/></clipPath><clipPath id="995d672bce"><path d="M 0.339844 0.0429688 L 33.082031 0.0429688 L 33.082031 47.265625 L 0.339844 47.265625 Z M 0.339844 0.0429688 " clip-rule="nonzero"/></clipPath><clipPath id="18bb5668b6"><path d="M 0.550781 42.925781 C 9.699219 22.75 13.074219 16.675781 15.476562 13 C 16.976562 10.675781 17.800781 9.398438 19.601562 7.601562 C 21.925781 5.199219 26.125 0.925781 28.449219 0.324219 C 29.726562 -0.0507812 30.925781 0.324219 31.675781 0.851562 C 32.351562 1.226562 32.726562 2.050781 32.949219 2.726562 C 33.101562 3.398438 33.175781 4.226562 32.800781 4.898438 C 32.425781 5.726562 31.226562 6.773438 30.324219 7 C 29.574219 7.226562 28.75 7.148438 28.074219 6.773438 C 27.324219 6.324219 26.273438 5.125 26.125 4.226562 C 25.976562 3.25 26.574219 1.75 27.175781 1.074219 C 27.699219 0.550781 28.449219 0.175781 29.199219 0.175781 C 30.101562 0.101562 31.601562 0.699219 32.199219 1.375 C 32.800781 1.898438 33.023438 2.726562 33.023438 3.476562 C 33.101562 4.148438 33.023438 4.75 32.5 5.574219 C 31.226562 7.523438 25.601562 11.199219 23.648438 13.226562 C 22.601562 14.351562 22.375 14.800781 21.476562 16.226562 C 19.523438 19.148438 15.773438 25.675781 13.148438 30.550781 C 10.523438 35.574219 7.75 43.898438 5.875 46.074219 C 5.125 46.824219 4.675781 47.125 4 47.199219 C 3.324219 47.351562 2.425781 47.199219 1.824219 46.824219 C 1.226562 46.523438 0.699219 45.773438 0.476562 45.175781 C 0.25 44.5 0.550781 42.925781 0.550781 42.925781 " clip-rule="nonzero"/></clipPath><clipPath id="fd58d8e383"><rect x="0" width="34" y="0" height="48"/></clipPath><clipPath id="b512f2d3e9"><path d="M 199.386719 148.164062 L 219 148.164062 L 219 185.316406 L 199.386719 185.316406 Z M 199.386719 148.164062 " clip-rule="nonzero"/></clipPath><clipPath id="4adcb8ead9"><path d="M 219 151.875 C 214.425781 172.425781 213.601562 173.851562 212.476562 175.648438 C 211.351562 177.523438 210.300781 179.476562 208.648438 180.898438 C 206.699219 182.625 202.648438 185.324219 201.148438 184.949219 C 200.25 184.648438 199.648438 183.074219 199.5 182.25 C 199.425781 181.5 199.648438 180.75 200.101562 180.148438 C 200.625 179.476562 201.898438 178.648438 202.875 178.648438 C 203.773438 178.648438 205.125 179.324219 205.648438 180.148438 C 206.175781 180.898438 206.25 182.398438 206.023438 183.226562 C 205.800781 183.976562 205.273438 184.574219 204.601562 184.875 C 203.851562 185.324219 202.273438 185.398438 201.449219 185.101562 C 200.773438 184.800781 200.25 184.199219 199.875 183.601562 C 199.574219 183 199.351562 182.175781 199.574219 181.5 C 199.726562 180.675781 200.625 179.398438 201.449219 178.949219 C 202.273438 178.574219 204.375 179.550781 204.601562 179.101562 C 204.824219 178.800781 203.25 177.898438 203.25 177 C 203.324219 174.976562 207.523438 171.75 209.101562 168.074219 C 211.273438 163.125 211.800781 151.875 213.523438 149.398438 C 214.125 148.648438 214.726562 148.425781 215.398438 148.273438 C 216.074219 148.199219 216.976562 148.199219 217.574219 148.648438 C 218.25 149.25 219 151.875 219 151.875 " clip-rule="nonzero"/></clipPath><clipPath id="d9a43907a9"><path d="M 0.386719 0.164062 L 20 0.164062 L 20 37.316406 L 0.386719 37.316406 Z M 0.386719 0.164062 " clip-rule="nonzero"/></clipPath><clipPath id="c29a4687ff"><path d="M 20 3.875 C 15.425781 24.425781 14.601562 25.851562 13.476562 27.648438 C 12.351562 29.523438 11.300781 31.476562 9.648438 32.898438 C 7.699219 34.625 3.648438 37.324219 2.148438 36.949219 C 1.25 36.648438 0.648438 35.074219 0.5 34.25 C 0.425781 33.5 0.648438 32.75 1.101562 32.148438 C 1.625 31.476562 2.898438 30.648438 3.875 30.648438 C 4.773438 30.648438 6.125 31.324219 6.648438 32.148438 C 7.175781 32.898438 7.25 34.398438 7.023438 35.226562 C 6.800781 35.976562 6.273438 36.574219 5.601562 36.875 C 4.851562 37.324219 3.273438 37.398438 2.449219 37.101562 C 1.773438 36.800781 1.25 36.199219 0.875 35.601562 C 0.574219 35 0.351562 34.175781 0.574219 33.5 C 0.726562 32.675781 1.625 31.398438 2.449219 30.949219 C 3.273438 30.574219 5.375 31.550781 5.601562 31.101562 C 5.824219 30.800781 4.25 29.898438 4.25 29 C 4.324219 26.976562 8.523438 23.75 10.101562 20.074219 C 12.273438 15.125 12.800781 3.875 14.523438 1.398438 C 15.125 0.648438 15.726562 0.425781 16.398438 0.273438 C 17.074219 0.199219 17.976562 0.199219 18.574219 0.648438 C 19.25 1.25 20 3.875 20 3.875 " clip-rule="nonzero"/></clipPath><clipPath id="ae563ff55c"><rect x="0" width="20" y="0" height="38"/></clipPath></defs><g clip-path="url(#96dcdb513c)"><g clip-path="url(#a0938b62cd)"><g clip-path="url(#76aa8147f0)"><g transform="matrix(1, 0, 0, 1, 95, 80)"><g clip-path="url(#cfbd6f73ee)"><g clip-path="url(#4ff8a286d4)"><g clip-path="url(#4a978e8ef0)"><g clip-path="url(#6c8bb68e59)"><g clip-path="url(#f3a6974ff7)"><g clip-path="url(#f2d58899b6)"><path fill="url(#2cb4fdf000)" d="M 51.824219 -83.679688 L -79.691406 125.589844 L 133.167969 259.363281 L 264.683594 50.09375 Z M 51.824219 -83.679688 " fill-rule="nonzero"/></g></g></g></g></g></g></g></g></g></g><g fill="#5b5b5b" fill-opacity="1"><g transform="translate(54.005443, 304.707314)"><g><path d="M 5.1875 0.578125 C 3.75 0.578125 2.53125 0.210938 1.53125 -0.515625 C 0.53125 -1.253906 0.03125 -2.175781 0.03125 -3.28125 C 0.03125 -4.113281 0.269531 -4.816406 0.75 -5.390625 C 1.226562 -5.972656 1.890625 -6.265625 2.734375 -6.265625 C 3.503906 -6.265625 4.085938 -6.035156 4.484375 -5.578125 C 4.878906 -5.117188 5.085938 -4.566406 5.109375 -3.921875 C 5.128906 -3.535156 5.019531 -3.09375 4.78125 -2.59375 C 4.882812 -2.375 5.046875 -2.222656 5.265625 -2.140625 C 5.492188 -2.054688 5.707031 -2.015625 5.90625 -2.015625 C 6.957031 -2.015625 7.484375 -2.960938 7.484375 -4.859375 L 7.484375 -19.296875 C 7.484375 -20.898438 7.53125 -21.976562 7.625 -22.53125 L 4.9375 -22.421875 L 4.9375 -25.203125 L 15.265625 -25.203125 L 15.265625 -22.828125 C 14.617188 -22.796875 14.125 -22.710938 13.78125 -22.578125 C 13.445312 -22.453125 13.179688 -22.171875 12.984375 -21.734375 C 12.796875 -21.304688 12.703125 -20.625 12.703125 -19.6875 L 12.703125 -9.140625 C 12.703125 -5.753906 12.070312 -3.285156 10.8125 -1.734375 C 9.550781 -0.191406 7.675781 0.578125 5.1875 0.578125 Z M 5.1875 0.578125 "/></g></g></g><g fill="#5b5b5b" fill-opacity="1"><g transform="translate(70.241473, 304.707314)"><g><path d="M 1.796875 -2.375 C 2.441406 -2.394531 2.929688 -2.472656 3.265625 -2.609375 C 3.609375 -2.742188 3.875 -3.023438 4.0625 -3.453125 C 4.257812 -3.890625 4.359375 -4.578125 4.359375 -5.515625 L 4.359375 -19.296875 C 4.359375 -20.640625 4.40625 -21.71875 4.5 -22.53125 L 1.796875 -22.421875 L 1.796875 -25.203125 L 19.796875 -25.203125 L 20.015625 -18.21875 L 17.640625 -18.21875 C 17.640625 -19.988281 17.210938 -21.21875 16.359375 -21.90625 C 15.503906 -22.59375 14.476562 -22.910156 13.28125 -22.859375 L 11.984375 -22.828125 C 11.410156 -22.796875 10.953125 -22.710938 10.609375 -22.578125 C 10.273438 -22.453125 10.019531 -22.160156 9.84375 -21.703125 C 9.664062 -21.253906 9.578125 -20.582031 9.578125 -19.6875 L 9.578125 -14.296875 L 13.78125 -14.296875 C 13.757812 -14.703125 13.710938 -15.742188 13.640625 -17.421875 L 16.421875 -17.421875 L 16.421875 -8.671875 L 14.046875 -8.671875 C 14.046875 -9.628906 13.894531 -10.335938 13.59375 -10.796875 C 13.289062 -11.253906 12.898438 -11.546875 12.421875 -11.671875 C 11.941406 -11.804688 11.304688 -11.863281 10.515625 -11.84375 L 9.578125 -11.8125 L 9.578125 -5.90625 C 9.578125 -4.601562 9.53125 -3.546875 9.4375 -2.734375 L 14.25 -2.734375 C 15.476562 -2.734375 16.515625 -3.144531 17.359375 -3.96875 C 18.210938 -4.800781 18.640625 -6.117188 18.640625 -7.921875 L 20.984375 -7.921875 L 20.8125 0 L 1.796875 0 Z M 1.796875 -2.375 "/></g></g></g><g fill="#5b5b5b" fill-opacity="1"><g transform="translate(92.705514, 304.707314)"><g><path d="M 9.4375 -14.359375 C 8.832031 -15.128906 8.171875 -16.03125 7.453125 -17.0625 L 7.421875 -17.0625 L 7.484375 -5.90625 C 7.484375 -4.5625 7.4375 -3.476562 7.34375 -2.65625 C 8.113281 -2.726562 9.015625 -2.765625 10.046875 -2.765625 L 10.046875 0 L 1.84375 0 L 1.84375 -2.375 C 2.488281 -2.394531 2.976562 -2.472656 3.3125 -2.609375 C 3.644531 -2.742188 3.90625 -3.023438 4.09375 -3.453125 C 4.289062 -3.890625 4.390625 -4.578125 4.390625 -5.515625 L 4.3125 -19.296875 C 4.3125 -20.898438 4.363281 -21.976562 4.46875 -22.53125 L 1.734375 -22.421875 L 1.734375 -25.203125 L 7.375 -25.203125 L 18.390625 -11.296875 C 19.398438 -9.984375 20.242188 -8.847656 20.921875 -7.890625 L 20.953125 -7.890625 L 20.953125 -19.296875 C 20.953125 -20.859375 20.988281 -21.9375 21.0625 -22.53125 L 18.359375 -22.421875 L 18.359375 -25.203125 L 26.5625 -25.203125 L 26.5625 -22.828125 C 25.914062 -22.796875 25.425781 -22.710938 25.09375 -22.578125 C 24.757812 -22.453125 24.492188 -22.171875 24.296875 -21.734375 C 24.109375 -21.304688 24.015625 -20.625 24.015625 -19.6875 L 24.015625 0.359375 L 20.953125 0.359375 Z M 9.4375 -14.359375 "/></g></g></g><g fill="#5b5b5b" fill-opacity="1"><g transform="translate(120.533572, 304.707314)"><g><path d="M 9.4375 -14.359375 C 8.832031 -15.128906 8.171875 -16.03125 7.453125 -17.0625 L 7.421875 -17.0625 L 7.484375 -5.90625 C 7.484375 -4.5625 7.4375 -3.476562 7.34375 -2.65625 C 8.113281 -2.726562 9.015625 -2.765625 10.046875 -2.765625 L 10.046875 0 L 1.84375 0 L 1.84375 -2.375 C 2.488281 -2.394531 2.976562 -2.472656 3.3125 -2.609375 C 3.644531 -2.742188 3.90625 -3.023438 4.09375 -3.453125 C 4.289062 -3.890625 4.390625 -4.578125 4.390625 -5.515625 L 4.3125 -19.296875 C 4.3125 -20.898438 4.363281 -21.976562 4.46875 -22.53125 L 1.734375 -22.421875 L 1.734375 -25.203125 L 7.375 -25.203125 L 18.390625 -11.296875 C 19.398438 -9.984375 20.242188 -8.847656 20.921875 -7.890625 L 20.953125 -7.890625 L 20.953125 -19.296875 C 20.953125 -20.859375 20.988281 -21.9375 21.0625 -22.53125 L 18.359375 -22.421875 L 18.359375 -25.203125 L 26.5625 -25.203125 L 26.5625 -22.828125 C 25.914062 -22.796875 25.425781 -22.710938 25.09375 -22.578125 C 24.757812 -22.453125 24.492188 -22.171875 24.296875 -21.734375 C 24.109375 -21.304688 24.015625 -20.625 24.015625 -19.6875 L 24.015625 0.359375 L 20.953125 0.359375 Z M 9.4375 -14.359375 "/></g></g></g><g fill="#5b5b5b" fill-opacity="1"><g transform="translate(148.36163, 304.707314)"><g><path d="M 1.796875 -2.375 C 2.441406 -2.394531 2.929688 -2.472656 3.265625 -2.609375 C 3.609375 -2.742188 3.875 -3.023438 4.0625 -3.453125 C 4.257812 -3.890625 4.359375 -4.578125 4.359375 -5.515625 L 4.359375 -19.296875 C 4.359375 -20.640625 4.40625 -21.71875 4.5 -22.53125 L 1.796875 -22.421875 L 1.796875 -25.203125 L 12.125 -25.203125 L 12.125 -22.828125 C 11.476562 -22.796875 10.988281 -22.710938 10.65625 -22.578125 C 10.320312 -22.453125 10.054688 -22.171875 9.859375 -21.734375 C 9.671875 -21.304688 9.578125 -20.625 9.578125 -19.6875 L 9.578125 -5.90625 C 9.578125 -4.5625 9.53125 -3.476562 9.4375 -2.65625 C 10.195312 -2.726562 11.09375 -2.765625 12.125 -2.765625 L 12.125 0 L 1.796875 0 Z M 1.796875 -2.375 "/></g></g></g><g fill="#5b5b5b" fill-opacity="1"><g transform="translate(162.293656, 304.707314)"><g><path d="M 1.796875 -2.375 C 2.441406 -2.394531 2.929688 -2.472656 3.265625 -2.609375 C 3.609375 -2.742188 3.875 -3.023438 4.0625 -3.453125 C 4.257812 -3.890625 4.359375 -4.578125 4.359375 -5.515625 L 4.359375 -19.296875 C 4.359375 -20.640625 4.40625 -21.71875 4.5 -22.53125 L 1.796875 -22.421875 L 1.796875 -25.203125 L 19.796875 -25.203125 L 20.015625 -18.21875 L 17.640625 -18.21875 C 17.640625 -19.988281 17.210938 -21.21875 16.359375 -21.90625 C 15.503906 -22.59375 14.476562 -22.910156 13.28125 -22.859375 L 11.984375 -22.828125 C 11.410156 -22.796875 10.953125 -22.710938 10.609375 -22.578125 C 10.273438 -22.453125 10.019531 -22.160156 9.84375 -21.703125 C 9.664062 -21.253906 9.578125 -20.582031 9.578125 -19.6875 L 9.578125 -13.421875 L 13.28125 -13.421875 C 13.257812 -13.734375 13.210938 -14.769531 13.140625 -16.53125 L 15.90625 -16.53125 L 15.90625 -7.78125 L 13.53125 -7.78125 C 13.53125 -8.738281 13.378906 -9.453125 13.078125 -9.921875 C 12.785156 -10.390625 12.390625 -10.679688 11.890625 -10.796875 C 11.398438 -10.921875 10.773438 -10.96875 10.015625 -10.9375 L 9.578125 -10.9375 L 9.578125 -5.90625 C 9.578125 -4.5625 9.53125 -3.476562 9.4375 -2.65625 C 10.195312 -2.726562 11.265625 -2.765625 12.640625 -2.765625 L 12.640625 0 L 1.796875 0 Z M 1.796875 -2.375 "/></g></g></g><g fill="#5b5b5b" fill-opacity="1"><g transform="translate(182.849693, 304.707314)"><g><path d="M 1.796875 -2.375 C 2.441406 -2.394531 2.929688 -2.472656 3.265625 -2.609375 C 3.609375 -2.742188 3.875 -3.023438 4.0625 -3.453125 C 4.257812 -3.890625 4.359375 -4.578125 4.359375 -5.515625 L 4.359375 -19.296875 C 4.359375 -20.640625 4.40625 -21.71875 4.5 -22.53125 L 1.796875 -22.421875 L 1.796875 -25.203125 L 19.796875 -25.203125 L 20.015625 -18.21875 L 17.640625 -18.21875 C 17.640625 -19.988281 17.210938 -21.21875 16.359375 -21.90625 C 15.503906 -22.59375 14.476562 -22.910156 13.28125 -22.859375 L 11.984375 -22.828125 C 11.410156 -22.796875 10.953125 -22.710938 10.609375 -22.578125 C 10.273438 -22.453125 10.019531 -22.160156 9.84375 -21.703125 C 9.664062 -21.253906 9.578125 -20.582031 9.578125 -19.6875 L 9.578125 -14.296875 L 13.78125 -14.296875 C 13.757812 -14.703125 13.710938 -15.742188 13.640625 -17.421875 L 16.421875 -17.421875 L 16.421875 -8.671875 L 14.046875 -8.671875 C 14.046875 -9.628906 13.894531 -10.335938 13.59375 -10.796875 C 13.289062 -11.253906 12.898438 -11.546875 12.421875 -11.671875 C 11.941406 -11.804688 11.304688 -11.863281 10.515625 -11.84375 L 9.578125 -11.8125 L 9.578125 -5.90625 C 9.578125 -4.601562 9.53125 -3.546875 9.4375 -2.734375 L 14.25 -2.734375 C 15.476562 -2.734375 16.515625 -3.144531 17.359375 -3.96875 C 18.210938 -4.800781 18.640625 -6.117188 18.640625 -7.921875 L 20.984375 -7.921875 L 20.8125 0 L 1.796875 0 Z M 1.796875 -2.375 "/></g></g></g><g fill="#5b5b5b" fill-opacity="1"><g transform="translate(205.313734, 304.707314)"><g><path d="M 1.796875 -2.375 C 2.441406 -2.394531 2.929688 -2.472656 3.265625 -2.609375 C 3.609375 -2.742188 3.875 -3.023438 4.0625 -3.453125 C 4.257812 -3.890625 4.359375 -4.578125 4.359375 -5.515625 L 4.359375 -19.296875 C 4.359375 -20.640625 4.40625 -21.71875 4.5 -22.53125 L 1.796875 -22.421875 L 1.796875 -25.203125 L 12.03125 -25.265625 C 15.3125 -25.296875 17.84375 -24.722656 19.625 -23.546875 C 21.414062 -22.367188 22.3125 -20.457031 22.3125 -17.8125 C 22.3125 -16.164062 21.773438 -14.695312 20.703125 -13.40625 C 19.640625 -12.125 18.066406 -11.179688 15.984375 -10.578125 L 15.984375 -10.546875 C 16.410156 -10.378906 16.851562 -10.082031 17.3125 -9.65625 C 17.769531 -9.238281 18.15625 -8.78125 18.46875 -8.28125 L 20.15625 -5.765625 C 20.976562 -4.492188 21.65625 -3.613281 22.1875 -3.125 C 22.726562 -2.644531 23.394531 -2.394531 24.1875 -2.375 L 24.1875 0 L 18.25 0 C 17.84375 -0.289062 17.4375 -0.703125 17.03125 -1.234375 C 16.625 -1.773438 16.15625 -2.492188 15.625 -3.390625 L 12.953125 -7.703125 C 12.359375 -8.660156 11.859375 -9.359375 11.453125 -9.796875 L 9.578125 -9.796875 L 9.578125 -5.9375 C 9.578125 -4.570312 9.53125 -3.476562 9.4375 -2.65625 C 10.195312 -2.726562 11.210938 -2.765625 12.484375 -2.765625 L 12.484375 0 L 1.796875 0 Z M 11.296875 -12.390625 C 13.265625 -12.390625 14.6875 -12.828125 15.5625 -13.703125 C 16.445312 -14.578125 16.890625 -15.945312 16.890625 -17.8125 C 16.890625 -19.8125 16.378906 -21.132812 15.359375 -21.78125 C 14.335938 -22.425781 13.210938 -22.75 11.984375 -22.75 C 11.148438 -22.75 10.539062 -22.566406 10.15625 -22.203125 C 9.769531 -21.847656 9.578125 -21.082031 9.578125 -19.90625 L 9.578125 -12.53125 C 10.296875 -12.4375 10.867188 -12.390625 11.296875 -12.390625 Z M 11.296875 -12.390625 "/></g></g></g><g fill="#5b5b5b" fill-opacity="1"><g transform="translate(230.009785, 304.707314)"><g/></g></g><g fill="#5b5b5b" fill-opacity="1"><g transform="translate(239.477802, 304.707314)"><g><path d="M 13.609375 0.578125 C 11.179688 0.578125 9.03125 0.015625 7.15625 -1.109375 C 5.289062 -2.242188 3.84375 -3.785156 2.8125 -5.734375 C 1.78125 -7.691406 1.265625 -9.859375 1.265625 -12.234375 C 1.265625 -14.515625 1.75 -16.691406 2.71875 -18.765625 C 3.6875 -20.847656 5.117188 -22.535156 7.015625 -23.828125 C 8.910156 -25.128906 11.191406 -25.78125 13.859375 -25.78125 C 14.816406 -25.78125 15.851562 -25.625 16.96875 -25.3125 C 18.082031 -25 19.109375 -24.566406 20.046875 -24.015625 L 20.09375 -24.015625 L 19.9375 -25.53125 L 22.71875 -25.53125 L 22.71875 -17.140625 L 20.375 -17.140625 C 19.726562 -21.117188 17.710938 -23.132812 14.328125 -23.1875 C 12.722656 -23.1875 11.359375 -22.710938 10.234375 -21.765625 C 9.117188 -20.816406 8.285156 -19.5625 7.734375 -18 C 7.179688 -16.4375 6.90625 -14.753906 6.90625 -12.953125 C 6.90625 -10.890625 7.207031 -9.054688 7.8125 -7.453125 C 8.414062 -5.847656 9.28125 -4.59375 10.40625 -3.6875 C 11.53125 -2.789062 12.882812 -2.34375 14.46875 -2.34375 C 16.007812 -2.34375 17.515625 -2.738281 18.984375 -3.53125 C 20.460938 -4.320312 21.707031 -5.398438 22.71875 -6.765625 L 24.4375 -5.1875 C 22.851562 -3 21.113281 -1.488281 19.21875 -0.65625 C 17.320312 0.164062 15.453125 0.578125 13.609375 0.578125 Z M 13.609375 0.578125 "/></g></g></g><g fill="#5b5b5b" fill-opacity="1"><g transform="translate(264.245847, 304.707314)"><g><path d="M 1.796875 -2.375 C 2.441406 -2.394531 2.929688 -2.472656 3.265625 -2.609375 C 3.609375 -2.742188 3.875 -3.023438 4.0625 -3.453125 C 4.257812 -3.890625 4.359375 -4.578125 4.359375 -5.515625 L 4.359375 -19.296875 C 4.359375 -20.640625 4.40625 -21.71875 4.5 -22.53125 L 1.796875 -22.421875 L 1.796875 -25.203125 L 12.125 -25.203125 L 12.125 -22.828125 C 11.476562 -22.796875 10.988281 -22.710938 10.65625 -22.578125 C 10.320312 -22.453125 10.054688 -22.171875 9.859375 -21.734375 C 9.671875 -21.304688 9.578125 -20.625 9.578125 -19.6875 L 9.578125 -14.078125 L 19.46875 -14.078125 L 19.46875 -19.296875 C 19.46875 -20.898438 19.519531 -21.976562 19.625 -22.53125 L 16.921875 -22.421875 L 16.921875 -25.203125 L 27.25 -25.203125 L 27.25 -22.828125 C 26.601562 -22.796875 26.109375 -22.710938 25.765625 -22.578125 C 25.429688 -22.453125 25.171875 -22.171875 24.984375 -21.734375 C 24.796875 -21.304688 24.703125 -20.625 24.703125 -19.6875 L 24.703125 -5.90625 C 24.703125 -4.5625 24.648438 -3.476562 24.546875 -2.65625 C 25.316406 -2.726562 26.21875 -2.765625 27.25 -2.765625 L 27.25 0 L 16.921875 0 L 16.921875 -2.375 C 17.566406 -2.394531 18.054688 -2.472656 18.390625 -2.609375 C 18.734375 -2.742188 19 -3.023438 19.1875 -3.453125 C 19.375 -3.890625 19.46875 -4.578125 19.46875 -5.515625 L 19.46875 -11.34375 L 9.578125 -11.234375 L 9.578125 -5.90625 C 9.578125 -4.5625 9.53125 -3.476562 9.4375 -2.65625 C 10.195312 -2.726562 11.09375 -2.765625 12.125 -2.765625 L 12.125 0 L 1.796875 0 Z M 1.796875 -2.375 "/></g></g></g><g fill="#5b5b5b" fill-opacity="1"><g transform="translate(293.297908, 304.707314)"><g><path d="M 13.78125 0.578125 C 10.90625 0.578125 8.53125 -0.0546875 6.65625 -1.328125 C 4.789062 -2.597656 3.425781 -4.226562 2.5625 -6.21875 C 1.695312 -8.21875 1.265625 -10.34375 1.265625 -12.59375 C 1.265625 -14.726562 1.742188 -16.804688 2.703125 -18.828125 C 3.660156 -20.847656 5.09375 -22.507812 7 -23.8125 C 8.90625 -25.125 11.203125 -25.78125 13.890625 -25.78125 C 16.648438 -25.78125 18.972656 -25.125 20.859375 -23.8125 C 22.742188 -22.507812 24.140625 -20.847656 25.046875 -18.828125 C 25.960938 -16.804688 26.421875 -14.726562 26.421875 -12.59375 C 26.421875 -10.507812 25.941406 -8.453125 24.984375 -6.421875 C 24.023438 -4.398438 22.585938 -2.726562 20.671875 -1.40625 C 18.765625 -0.0820312 16.46875 0.578125 13.78125 0.578125 Z M 14.140625 -2.046875 C 15.703125 -2.046875 16.972656 -2.535156 17.953125 -3.515625 C 18.941406 -4.503906 19.648438 -5.753906 20.078125 -7.265625 C 20.515625 -8.785156 20.734375 -10.359375 20.734375 -11.984375 C 20.734375 -15.390625 20.132812 -18.097656 18.9375 -20.109375 C 17.738281 -22.128906 15.960938 -23.140625 13.609375 -23.140625 C 12.023438 -23.140625 10.726562 -22.632812 9.71875 -21.625 C 8.707031 -20.625 7.984375 -19.351562 7.546875 -17.8125 C 7.117188 -16.28125 6.90625 -14.6875 6.90625 -13.03125 C 6.90625 -11.351562 7.144531 -9.671875 7.625 -7.984375 C 8.113281 -6.304688 8.898438 -4.894531 9.984375 -3.75 C 11.078125 -2.613281 12.460938 -2.046875 14.140625 -2.046875 Z M 14.140625 -2.046875 "/></g></g></g><g fill="#5b5b5b" fill-opacity="1"><g transform="translate(112.559415, 329.301425)"><g><path d="M 10.671875 -11.96875 L 10.671875 -10.765625 L 6.390625 -10.765625 L 6.390625 0.015625 L 4.90625 0.015625 L 4.90625 -10.765625 L 0.59375 -10.765625 L 0.59375 -11.96875 Z M 10.671875 -11.96875 "/></g></g></g><g fill="#5b5b5b" fill-opacity="1"><g transform="translate(135.196045, 329.301425)"><g><path d="M 9.6875 -11.96875 L 11.15625 -11.96875 L 11.15625 0 L 9.6875 0 L 9.6875 -5.578125 L 2.71875 -5.578125 L 2.71875 0 L 1.21875 0 L 1.21875 -11.96875 L 2.71875 -11.96875 L 2.71875 -6.78125 L 9.6875 -6.78125 Z M 9.6875 -11.96875 "/></g></g></g><g fill="#5b5b5b" fill-opacity="1"><g transform="translate(158.947947, 329.301425)"><g><path d="M 2.71875 -1.203125 L 10.140625 -1.203125 L 10.140625 0 L 1.21875 0 L 1.21875 -11.96875 L 10.078125 -11.96875 L 10.078125 -10.765625 L 2.71875 -10.765625 L 2.71875 -6.75 L 9.546875 -6.75 L 9.546875 -5.5625 L 2.71875 -5.5625 Z M 2.71875 -1.203125 "/></g></g></g><g fill="#5b5b5b" fill-opacity="1"><g transform="translate(181.566587, 329.301425)"><g><path d="M 10.09375 -3.171875 L 10.09375 -1.90625 C 10.09375 -1.457031 10.117188 -1.082031 10.171875 -0.78125 C 10.234375 -0.488281 10.285156 -0.226562 10.328125 0 L 8.875 0 C 8.8125 -0.207031 8.757812 -0.457031 8.71875 -0.75 C 8.675781 -1.050781 8.65625 -1.421875 8.65625 -1.859375 L 8.65625 -2.953125 C 8.65625 -3.804688 8.429688 -4.421875 7.984375 -4.796875 C 7.546875 -5.171875 6.910156 -5.359375 6.078125 -5.359375 L 2.71875 -5.359375 L 2.71875 0 L 1.21875 0 L 1.21875 -11.96875 L 6.796875 -11.96875 C 8.035156 -11.96875 8.957031 -11.679688 9.5625 -11.109375 C 10.164062 -10.546875 10.46875 -9.78125 10.46875 -8.8125 C 10.46875 -8.007812 10.25 -7.34375 9.8125 -6.8125 C 9.375 -6.289062 8.820312 -5.953125 8.15625 -5.796875 C 8.539062 -5.691406 8.875 -5.546875 9.15625 -5.359375 C 9.445312 -5.171875 9.675781 -4.90625 9.84375 -4.5625 C 10.007812 -4.21875 10.09375 -3.753906 10.09375 -3.171875 Z M 6.625 -6.484375 C 7.46875 -6.484375 8.054688 -6.679688 8.390625 -7.078125 C 8.734375 -7.472656 8.90625 -8.007812 8.90625 -8.6875 C 8.90625 -9.382812 8.722656 -9.90625 8.359375 -10.25 C 7.992188 -10.59375 7.421875 -10.765625 6.640625 -10.765625 L 2.71875 -10.765625 L 2.71875 -6.484375 Z M 6.625 -6.484375 "/></g></g></g><g fill="#5b5b5b" fill-opacity="1"><g transform="translate(204.562984, 329.301425)"><g><path d="M 10.4375 0 L 9.265625 -3.0625 L 3.328125 -3.0625 L 2.15625 0 L 0.671875 0 L 5.203125 -11.96875 L 7.421875 -11.96875 L 11.953125 0 Z M 3.78125 -4.265625 L 8.8125 -4.265625 L 6.296875 -10.890625 Z M 3.78125 -4.265625 "/></g></g></g><g fill="#5b5b5b" fill-opacity="1"><g transform="translate(228.494776, 329.301425)"><g><path d="M 6.71875 -11.96875 C 7.582031 -11.96875 8.273438 -11.8125 8.796875 -11.5 C 9.328125 -11.1875 9.710938 -10.765625 9.953125 -10.234375 C 10.203125 -9.710938 10.328125 -9.128906 10.328125 -8.484375 C 10.328125 -7.847656 10.203125 -7.257812 9.953125 -6.71875 C 9.710938 -6.1875 9.320312 -5.757812 8.78125 -5.4375 C 8.238281 -5.125 7.523438 -4.96875 6.640625 -4.96875 L 2.734375 -4.96875 L 2.734375 0 L 1.21875 0 L 1.21875 -11.96875 Z M 6.34375 -6.171875 C 7.226562 -6.171875 7.851562 -6.382812 8.21875 -6.8125 C 8.582031 -7.238281 8.765625 -7.796875 8.765625 -8.484375 C 8.765625 -9.191406 8.582031 -9.75 8.21875 -10.15625 C 7.863281 -10.5625 7.253906 -10.765625 6.390625 -10.765625 L 2.734375 -10.765625 L 2.734375 -6.171875 Z M 6.34375 -6.171875 "/></g></g></g><g fill="#5b5b5b" fill-opacity="1"><g transform="translate(250.933537, 329.301425)"><g><path d="M 9.328125 -11.96875 L 11 -11.96875 L 6.5 -4.1875 L 6.5 0 L 5 0 L 5 -4.1875 L 0.5 -11.96875 L 2.21875 -11.96875 L 4.9375 -7.015625 C 5.0625 -6.753906 5.191406 -6.5 5.328125 -6.25 C 5.472656 -6 5.617188 -5.742188 5.765625 -5.484375 C 5.890625 -5.742188 6.023438 -6 6.171875 -6.25 C 6.316406 -6.5 6.457031 -6.753906 6.59375 -7.015625 Z M 9.328125 -11.96875 "/></g></g></g><g fill="#feffff" fill-opacity="1"><g transform="translate(106.506245, 199.076785)"><g><path d="M 18.3125 1.34375 C 15.0625 1.34375 12.050781 0.992188 9.28125 0.296875 C 6.507812 -0.398438 4.367188 -1.367188 2.859375 -2.609375 C 0.785156 -4.335938 -0.25 -6.546875 -0.25 -9.234375 C -0.25 -10.859375 0.179688 -12.582031 1.046875 -14.40625 C 1.921875 -16.226562 3.195312 -18.0625 4.875 -19.90625 C 6.101562 -18.789062 7.570312 -17.894531 9.28125 -17.21875 C 10.988281 -16.550781 12.820312 -16.21875 14.78125 -16.21875 C 16.96875 -16.21875 18.757812 -16.890625 20.15625 -18.234375 C 21.5625 -19.578125 22.265625 -21.535156 22.265625 -24.109375 L 22.265625 -60.90625 C 22.878906 -61.007812 24.09375 -61.128906 25.90625 -61.265625 C 27.726562 -61.410156 29.3125 -61.484375 30.65625 -61.484375 C 34.238281 -61.484375 36.867188 -61.242188 38.546875 -60.765625 C 40.234375 -60.296875 41.382812 -59.457031 42 -58.25 C 42.613281 -57.050781 42.921875 -55.160156 42.921875 -52.578125 L 42.921875 -22.9375 C 42.921875 -14.695312 40.75 -8.585938 36.40625 -4.609375 C 32.070312 -0.640625 26.039062 1.34375 18.3125 1.34375 Z M 18.3125 1.34375 "/></g></g></g><g fill="#feffff" fill-opacity="1"><g transform="translate(154.056234, 196.304716)"><g><path d="M 34.234375 -59.8125 C 41.210938 -59.8125 46.582031 -58.640625 50.34375 -56.296875 C 51.863281 -55.378906 53.019531 -54.195312 53.8125 -52.75 C 54.601562 -51.300781 55 -49.734375 55 -48.046875 C 55 -46.140625 54.46875 -44.257812 53.40625 -42.40625 C 52.34375 -40.5625 50.832031 -38.984375 48.875 -37.671875 C 47.613281 -38.984375 45.8125 -40.15625 43.46875 -41.1875 C 41.125 -42.21875 38.675781 -42.734375 36.125 -42.734375 C 33.726562 -42.734375 31.5625 -42.1875 29.625 -41.09375 C 27.6875 -40.007812 26.171875 -38.457031 25.078125 -36.4375 C 23.992188 -34.425781 23.453125 -32.085938 23.453125 -29.421875 C 23.453125 -26.753906 23.992188 -24.410156 25.078125 -22.390625 C 26.171875 -20.378906 27.722656 -18.828125 29.734375 -17.734375 C 31.753906 -16.640625 34.128906 -16.09375 36.859375 -16.09375 C 39.523438 -16.09375 42 -16.675781 44.28125 -17.84375 C 46.570312 -19.019531 48.535156 -20.375 50.171875 -21.90625 C 51.921875 -20.269531 53.253906 -18.535156 54.171875 -16.703125 C 55.097656 -14.878906 55.5625 -13.097656 55.5625 -11.359375 C 55.5625 -9.722656 55.164062 -8.179688 54.375 -6.734375 C 53.59375 -5.296875 52.410156 -4.0625 50.828125 -3.03125 C 48.972656 -1.820312 46.613281 -0.847656 43.75 -0.109375 C 40.894531 0.617188 37.535156 0.984375 33.671875 0.984375 C 26.585938 0.984375 20.71875 -0.253906 16.0625 -2.734375 C 11.40625 -5.210938 7.972656 -8.695312 5.765625 -13.1875 C 3.554688 -17.6875 2.453125 -22.988281 2.453125 -29.09375 C 2.453125 -35.46875 3.757812 -40.957031 6.375 -45.5625 C 8.988281 -50.164062 12.691406 -53.691406 17.484375 -56.140625 C 22.273438 -58.585938 27.859375 -59.8125 34.234375 -59.8125 Z M 34.234375 -59.8125 "/></g></g></g><g fill="#feffff" fill-opacity="1"><g transform="translate(211.268751, 199.076785)"><g><path d="M 55.53125 -60.484375 C 55.632812 -59.640625 55.726562 -58.554688 55.8125 -57.234375 C 55.894531 -55.921875 55.9375 -54.734375 55.9375 -53.671875 C 55.9375 -50.597656 55.695312 -48.316406 55.21875 -46.828125 C 54.75 -45.347656 53.925781 -44.34375 52.75 -43.8125 C 51.570312 -43.28125 49.78125 -43.015625 47.375 -43.015625 L 38.8125 -43.015625 L 38.8125 0.421875 C 38.195312 0.535156 36.976562 0.660156 35.15625 0.796875 C 33.332031 0.941406 31.75 1.015625 30.40625 1.015625 C 26.820312 1.015625 24.1875 0.773438 22.5 0.296875 C 20.820312 -0.179688 19.675781 -1.019531 19.0625 -2.21875 C 18.445312 -3.425781 18.140625 -5.316406 18.140625 -7.890625 L 18.140625 -43.015625 L 1.265625 -43.015625 C 1.148438 -43.847656 1.050781 -44.921875 0.96875 -46.234375 C 0.882812 -47.554688 0.84375 -48.75 0.84375 -49.8125 C 0.84375 -52.894531 1.078125 -55.175781 1.546875 -56.65625 C 2.023438 -58.144531 2.851562 -59.15625 4.03125 -59.6875 C 5.207031 -60.21875 7 -60.484375 9.40625 -60.484375 Z M 55.53125 -60.484375 "/></g></g></g><g clip-path="url(#19a33d5b8c)"><g clip-path="url(#b616b0be25)"><g transform="matrix(1, 0, 0, 1, 164, 166)"><g clip-path="url(#1a21e45636)"><g clip-path="url(#580eddf282)"><g clip-path="url(#525609ea67)"><rect x="-246.5" width="540" fill="#ffffff" height="539.999987" y="-248.499998" fill-opacity="1"/></g></g></g></g></g></g><g clip-path="url(#6cdecf97b7)"><g clip-path="url(#2a737360c2)"><g transform="matrix(1, 0, 0, 1, 140, 143)"><g clip-path="url(#fd58d8e383)"><g clip-path="url(#995d672bce)"><g clip-path="url(#18bb5668b6)"><rect x="-222.5" width="540" fill="#ffffff" height="539.999987" y="-225.499998" fill-opacity="1"/></g></g></g></g></g></g><g clip-path="url(#b512f2d3e9)"><g clip-path="url(#4adcb8ead9)"><g transform="matrix(1, 0, 0, 1, 199, 148)"><g clip-path="url(#ae563ff55c)"><g clip-path="url(#d9a43907a9)"><g clip-path="url(#c29a4687ff)"><rect x="-281.5" width="540" fill="#ffffff" height="539.999987" y="-230.499998" fill-opacity="1"/></g></g></g></g></g></g></svg>