<svg xmlns="http://www.w3.org/2000/svg" xmlns:xlink="http://www.w3.org/1999/xlink" width="1000" zoomAndPan="magnify" viewBox="0 0 750 374.999991" height="500" preserveAspectRatio="xMidYMid meet" version="1.0"><defs><g/><clipPath id="76448192a9"><path d="M 166.34375 90.855469 L 657 90.855469 L 657 300.007812 L 166.34375 300.007812 Z M 166.34375 90.855469 " clip-rule="nonzero"/></clipPath><clipPath id="7faeedb009"><path d="M 622.488281 90.855469 L 200.929688 90.855469 C 188.503906 90.855469 177.050781 97.589844 171.011719 108.449219 C 164.972656 119.308594 165.292969 132.585938 171.847656 143.144531 C 191.726562 175.167969 191.726562 215.695312 171.847656 247.71875 C 165.292969 258.277344 164.972656 271.554688 171.011719 282.414062 C 177.050781 293.273438 188.503906 300.007812 200.929688 300.007812 L 622.488281 300.007812 C 634.914062 300.007812 646.367188 293.273438 652.40625 282.414062 C 658.445312 271.554688 658.125 258.277344 651.570312 247.71875 C 631.6875 215.695312 631.6875 175.167969 651.570312 143.144531 C 658.125 132.585938 658.445312 119.308594 652.40625 108.449219 C 646.367188 97.589844 634.914062 90.855469 622.488281 90.855469 Z M 622.488281 90.855469 " clip-rule="nonzero"/></clipPath><clipPath id="04e41afba6"><path d="M 0.691406 0.855469 L 490.714844 0.855469 L 490.714844 210.007812 L 0.691406 210.007812 Z M 0.691406 0.855469 " clip-rule="nonzero"/></clipPath><clipPath id="c773706b30"><path d="M 456.488281 0.855469 L 34.929688 0.855469 C 22.503906 0.855469 11.050781 7.589844 5.011719 18.449219 C -1.027344 29.308594 -0.707031 42.585938 5.847656 53.144531 C 25.726562 85.167969 25.726562 125.695312 5.847656 157.71875 C -0.707031 168.277344 -1.027344 181.554688 5.011719 192.414062 C 11.050781 203.273438 22.503906 210.007812 34.929688 210.007812 L 456.488281 210.007812 C 468.914062 210.007812 480.367188 203.273438 486.40625 192.414062 C 492.445312 181.554688 492.125 168.277344 485.570312 157.71875 C 465.6875 125.695312 465.6875 85.167969 485.570312 53.144531 C 492.125 42.585938 492.445312 29.308594 486.40625 18.449219 C 480.367188 7.589844 468.914062 0.855469 456.488281 0.855469 Z M 456.488281 0.855469 " clip-rule="nonzero"/></clipPath><linearGradient x1="33.432999" gradientTransform="matrix(0.816997, 0, 0, 0.816997, -26.623618, 0.855712)" y1="128" x2="633.221019" gradientUnits="userSpaceOnUse" y2="128" id="e3543dea5f"><stop stop-opacity="1" stop-color="rgb(58.039856%, 70.979309%, 100%)" offset="0"/><stop stop-opacity="1" stop-color="rgb(58.213806%, 71.150208%, 100%)" offset="0.015625"/><stop stop-opacity="1" stop-color="rgb(58.561707%, 71.49353%, 100%)" offset="0.03125"/><stop stop-opacity="1" stop-color="rgb(58.911133%, 71.836853%, 100%)" offset="0.046875"/><stop stop-opacity="1" stop-color="rgb(59.260559%, 72.180176%, 100%)" offset="0.0625"/><stop stop-opacity="1" stop-color="rgb(59.609985%, 72.521973%, 100%)" offset="0.078125"/><stop stop-opacity="1" stop-color="rgb(59.959412%, 72.865295%, 100%)" offset="0.09375"/><stop stop-opacity="1" stop-color="rgb(60.308838%, 73.208618%, 100%)" offset="0.109375"/><stop stop-opacity="1" stop-color="rgb(60.658264%, 73.551941%, 100%)" offset="0.125"/><stop stop-opacity="1" stop-color="rgb(61.00769%, 73.895264%, 100%)" offset="0.140625"/><stop stop-opacity="1" stop-color="rgb(61.355591%, 74.238586%, 100%)" offset="0.15625"/><stop stop-opacity="1" stop-color="rgb(61.705017%, 74.581909%, 100%)" offset="0.171875"/><stop stop-opacity="1" stop-color="rgb(62.054443%, 74.925232%, 100%)" offset="0.1875"/><stop stop-opacity="1" stop-color="rgb(62.40387%, 75.267029%, 100%)" offset="0.203125"/><stop stop-opacity="1" stop-color="rgb(62.753296%, 75.610352%, 100%)" offset="0.21875"/><stop stop-opacity="1" stop-color="rgb(63.102722%, 75.953674%, 100%)" offset="0.234375"/><stop stop-opacity="1" stop-color="rgb(63.452148%, 76.296997%, 100%)" offset="0.25"/><stop stop-opacity="1" stop-color="rgb(63.800049%, 76.64032%, 100%)" offset="0.265625"/><stop stop-opacity="1" stop-color="rgb(64.149475%, 76.983643%, 100%)" offset="0.28125"/><stop stop-opacity="1" stop-color="rgb(64.498901%, 77.326965%, 100%)" offset="0.296875"/><stop stop-opacity="1" stop-color="rgb(64.848328%, 77.668762%, 100%)" offset="0.3125"/><stop stop-opacity="1" stop-color="rgb(65.197754%, 78.012085%, 100%)" offset="0.328125"/><stop stop-opacity="1" stop-color="rgb(65.54718%, 78.355408%, 100%)" offset="0.34375"/><stop stop-opacity="1" stop-color="rgb(65.896606%, 78.69873%, 100%)" offset="0.359375"/><stop stop-opacity="1" stop-color="rgb(66.244507%, 79.042053%, 100%)" offset="0.375"/><stop stop-opacity="1" stop-color="rgb(66.593933%, 79.385376%, 100%)" offset="0.390625"/><stop stop-opacity="1" stop-color="rgb(66.943359%, 79.728699%, 100%)" offset="0.40625"/><stop stop-opacity="1" stop-color="rgb(67.292786%, 80.072021%, 100%)" offset="0.421875"/><stop stop-opacity="1" stop-color="rgb(67.642212%, 80.413818%, 100%)" offset="0.4375"/><stop stop-opacity="1" stop-color="rgb(67.991638%, 80.757141%, 100%)" offset="0.453125"/><stop stop-opacity="1" stop-color="rgb(68.341064%, 81.100464%, 100%)" offset="0.46875"/><stop stop-opacity="1" stop-color="rgb(68.690491%, 81.443787%, 100%)" offset="0.484375"/><stop stop-opacity="1" stop-color="rgb(69.038391%, 81.787109%, 100%)" offset="0.5"/><stop stop-opacity="1" stop-color="rgb(69.387817%, 82.130432%, 100%)" offset="0.515625"/><stop stop-opacity="1" stop-color="rgb(69.737244%, 82.473755%, 100%)" offset="0.53125"/><stop stop-opacity="1" stop-color="rgb(70.08667%, 82.817078%, 100%)" offset="0.546875"/><stop stop-opacity="1" stop-color="rgb(70.436096%, 83.158875%, 100%)" offset="0.5625"/><stop stop-opacity="1" stop-color="rgb(70.785522%, 83.502197%, 100%)" offset="0.578125"/><stop stop-opacity="1" stop-color="rgb(71.134949%, 83.84552%, 100%)" offset="0.59375"/><stop stop-opacity="1" stop-color="rgb(71.482849%, 84.188843%, 100%)" offset="0.609375"/><stop stop-opacity="1" stop-color="rgb(71.832275%, 84.532166%, 100%)" offset="0.625"/><stop stop-opacity="1" stop-color="rgb(72.181702%, 84.875488%, 100%)" offset="0.640625"/><stop stop-opacity="1" stop-color="rgb(72.531128%, 85.218811%, 100%)" offset="0.65625"/><stop stop-opacity="1" stop-color="rgb(72.880554%, 85.562134%, 100%)" offset="0.671875"/><stop stop-opacity="1" stop-color="rgb(73.22998%, 85.903931%, 100%)" offset="0.6875"/><stop stop-opacity="1" stop-color="rgb(73.579407%, 86.247253%, 100%)" offset="0.703125"/><stop stop-opacity="1" stop-color="rgb(73.927307%, 86.590576%, 100%)" offset="0.71875"/><stop stop-opacity="1" stop-color="rgb(74.276733%, 86.933899%, 100%)" offset="0.734375"/><stop stop-opacity="1" stop-color="rgb(74.62616%, 87.277222%, 100%)" offset="0.75"/><stop stop-opacity="1" stop-color="rgb(74.975586%, 87.620544%, 100%)" offset="0.765625"/><stop stop-opacity="1" stop-color="rgb(75.325012%, 87.963867%, 100%)" offset="0.78125"/><stop stop-opacity="1" stop-color="rgb(75.674438%, 88.305664%, 100%)" offset="0.796875"/><stop stop-opacity="1" stop-color="rgb(76.023865%, 88.648987%, 100%)" offset="0.8125"/><stop stop-opacity="1" stop-color="rgb(76.373291%, 88.99231%, 100%)" offset="0.828125"/><stop stop-opacity="1" stop-color="rgb(76.721191%, 89.335632%, 100%)" offset="0.84375"/><stop stop-opacity="1" stop-color="rgb(77.070618%, 89.678955%, 100%)" offset="0.859375"/><stop stop-opacity="1" stop-color="rgb(77.420044%, 90.022278%, 100%)" offset="0.875"/><stop stop-opacity="1" stop-color="rgb(77.76947%, 90.365601%, 100%)" offset="0.890625"/><stop stop-opacity="1" stop-color="rgb(78.118896%, 90.708923%, 100%)" offset="0.90625"/><stop stop-opacity="1" stop-color="rgb(78.468323%, 91.05072%, 100%)" offset="0.921875"/><stop stop-opacity="1" stop-color="rgb(78.817749%, 91.394043%, 100%)" offset="0.9375"/><stop stop-opacity="1" stop-color="rgb(79.165649%, 91.737366%, 100%)" offset="0.953125"/><stop stop-opacity="1" stop-color="rgb(79.515076%, 92.080688%, 100%)" offset="0.96875"/><stop stop-opacity="1" stop-color="rgb(79.864502%, 92.424011%, 100%)" offset="0.984375"/><stop stop-opacity="1" stop-color="rgb(80.213928%, 92.767334%, 100%)" offset="1"/></linearGradient><clipPath id="290e998d0b"><rect x="0" width="491" y="0" height="211"/></clipPath><clipPath id="5a9b89dc0d"><path d="M 166 90.855469 L 657 90.855469 L 657 300 L 166 300 Z M 166 90.855469 " clip-rule="nonzero"/></clipPath><clipPath id="dae17c8d1a"><path d="M 622.480469 90.855469 L 200.933594 90.855469 C 188.507812 90.855469 177.058594 97.589844 171.019531 108.449219 C 164.980469 119.304688 165.296875 132.585938 171.851562 143.140625 C 191.734375 175.164062 191.734375 215.691406 171.851562 247.714844 C 165.296875 258.269531 164.980469 271.550781 171.019531 282.40625 C 177.058594 293.265625 188.507812 300 200.933594 300 L 622.480469 300 C 634.90625 300 646.355469 293.265625 652.398438 282.40625 C 658.4375 271.550781 658.117188 258.269531 651.5625 247.714844 C 631.679688 215.691406 631.679688 175.164062 651.5625 143.140625 C 658.117188 132.585938 658.4375 119.304688 652.398438 108.449219 C 646.355469 97.589844 634.90625 90.855469 622.480469 90.855469 Z M 622.480469 90.855469 " clip-rule="nonzero"/></clipPath><radialGradient gradientTransform="matrix(1.333334, 0, 0, 1.333334, 0.00000561054, -0.00000508579)" gradientUnits="userSpaceOnUse" r="532.775111" cx="27.317637" id="a43b7deff8" cy="0" fx="27.317637" fy="0"><stop stop-opacity="1" stop-color="rgb(32.189941%, 71.50116%, 99.92218%)" offset="0"/><stop stop-opacity="1" stop-color="rgb(32.243347%, 71.731567%, 99.787903%)" offset="0.015625"/><stop stop-opacity="1" stop-color="rgb(32.289124%, 71.928406%, 99.673462%)" offset="0.0273438"/><stop stop-opacity="1" stop-color="rgb(32.3349%, 72.12677%, 99.559021%)" offset="0.0390625"/><stop stop-opacity="1" stop-color="rgb(32.380676%, 72.325134%, 99.443054%)" offset="0.0507812"/><stop stop-opacity="1" stop-color="rgb(32.426453%, 72.521973%, 99.328613%)" offset="0.0625"/><stop stop-opacity="1" stop-color="rgb(32.473755%, 72.720337%, 99.214172%)" offset="0.0742188"/><stop stop-opacity="1" stop-color="rgb(32.519531%, 72.917175%, 99.099731%)" offset="0.0859375"/><stop stop-opacity="1" stop-color="rgb(32.565308%, 73.11554%, 98.983765%)" offset="0.0976562"/><stop stop-opacity="1" stop-color="rgb(32.611084%, 73.312378%, 98.869324%)" offset="0.109375"/><stop stop-opacity="1" stop-color="rgb(32.65686%, 73.510742%, 98.754883%)" offset="0.121094"/><stop stop-opacity="1" stop-color="rgb(32.702637%, 73.707581%, 98.640442%)" offset="0.132812"/><stop stop-opacity="1" stop-color="rgb(32.748413%, 73.905945%, 98.524475%)" offset="0.144531"/><stop stop-opacity="1" stop-color="rgb(32.794189%, 74.104309%, 98.410034%)" offset="0.15625"/><stop stop-opacity="1" stop-color="rgb(32.839966%, 74.301147%, 98.295593%)" offset="0.167969"/><stop stop-opacity="1" stop-color="rgb(32.885742%, 74.499512%, 98.179626%)" offset="0.179688"/><stop stop-opacity="1" stop-color="rgb(32.933044%, 74.69635%, 98.065186%)" offset="0.191406"/><stop stop-opacity="1" stop-color="rgb(32.978821%, 74.894714%, 97.950745%)" offset="0.203125"/><stop stop-opacity="1" stop-color="rgb(33.024597%, 75.091553%, 97.836304%)" offset="0.214844"/><stop stop-opacity="1" stop-color="rgb(33.070374%, 75.289917%, 97.720337%)" offset="0.226562"/><stop stop-opacity="1" stop-color="rgb(33.11615%, 75.488281%, 97.605896%)" offset="0.238281"/><stop stop-opacity="1" stop-color="rgb(33.161926%, 75.68512%, 97.491455%)" offset="0.25"/><stop stop-opacity="1" stop-color="rgb(33.222961%, 75.949097%, 97.338867%)" offset="0.261719"/><stop stop-opacity="1" stop-color="rgb(33.299255%, 76.278687%, 97.146606%)" offset="0.28125"/><stop stop-opacity="1" stop-color="rgb(33.377075%, 76.608276%, 96.955872%)" offset="0.300781"/><stop stop-opacity="1" stop-color="rgb(33.453369%, 76.937866%, 96.763611%)" offset="0.320312"/><stop stop-opacity="1" stop-color="rgb(33.529663%, 77.267456%, 96.572876%)" offset="0.339844"/><stop stop-opacity="1" stop-color="rgb(33.605957%, 77.597046%, 96.380615%)" offset="0.359375"/><stop stop-opacity="1" stop-color="rgb(33.674622%, 77.893066%, 96.209717%)" offset="0.378906"/><stop stop-opacity="1" stop-color="rgb(33.735657%, 78.155518%, 96.055603%)" offset="0.394531"/><stop stop-opacity="1" stop-color="rgb(33.798218%, 78.419495%, 95.903015%)" offset="0.410156"/><stop stop-opacity="1" stop-color="rgb(33.859253%, 78.683472%, 95.750427%)" offset="0.425781"/><stop stop-opacity="1" stop-color="rgb(33.920288%, 78.947449%, 95.596313%)" offset="0.441406"/><stop stop-opacity="1" stop-color="rgb(33.981323%, 79.2099%, 95.443726%)" offset="0.457031"/><stop stop-opacity="1" stop-color="rgb(34.042358%, 79.473877%, 95.291138%)" offset="0.472656"/><stop stop-opacity="1" stop-color="rgb(34.103394%, 79.737854%, 95.137024%)" offset="0.488281"/><stop stop-opacity="1" stop-color="rgb(34.156799%, 79.968262%, 95.002747%)" offset="0.503906"/><stop stop-opacity="1" stop-color="rgb(34.204102%, 80.166626%, 94.888306%)" offset="0.515625"/><stop stop-opacity="1" stop-color="rgb(34.249878%, 80.363464%, 94.773865%)" offset="0.527344"/><stop stop-opacity="1" stop-color="rgb(34.295654%, 80.561829%, 94.657898%)" offset="0.539062"/><stop stop-opacity="1" stop-color="rgb(34.341431%, 80.760193%, 94.543457%)" offset="0.550781"/><stop stop-opacity="1" stop-color="rgb(34.387207%, 80.957031%, 94.429016%)" offset="0.5625"/><stop stop-opacity="1" stop-color="rgb(34.432983%, 81.155396%, 94.314575%)" offset="0.574219"/><stop stop-opacity="1" stop-color="rgb(34.47876%, 81.352234%, 94.198608%)" offset="0.585938"/><stop stop-opacity="1" stop-color="rgb(34.524536%, 81.550598%, 94.084167%)" offset="0.597656"/><stop stop-opacity="1" stop-color="rgb(34.570312%, 81.747437%, 93.969727%)" offset="0.609375"/><stop stop-opacity="1" stop-color="rgb(34.616089%, 81.945801%, 93.855286%)" offset="0.621094"/><stop stop-opacity="1" stop-color="rgb(34.67865%, 82.209778%, 93.701172%)" offset="0.632812"/><stop stop-opacity="1" stop-color="rgb(34.754944%, 82.539368%, 93.510437%)" offset="0.652344"/><stop stop-opacity="1" stop-color="rgb(34.831238%, 82.868958%, 93.318176%)" offset="0.671875"/><stop stop-opacity="1" stop-color="rgb(34.899902%, 83.164978%, 93.147278%)" offset="0.691406"/><stop stop-opacity="1" stop-color="rgb(34.960938%, 83.427429%, 92.993164%)" offset="0.707031"/><stop stop-opacity="1" stop-color="rgb(35.021973%, 83.691406%, 92.840576%)" offset="0.722656"/><stop stop-opacity="1" stop-color="rgb(35.084534%, 83.955383%, 92.687988%)" offset="0.738281"/><stop stop-opacity="1" stop-color="rgb(35.137939%, 84.185791%, 92.553711%)" offset="0.753906"/><stop stop-opacity="1" stop-color="rgb(35.183716%, 84.384155%, 92.437744%)" offset="0.765625"/><stop stop-opacity="1" stop-color="rgb(35.229492%, 84.580994%, 92.323303%)" offset="0.777344"/><stop stop-opacity="1" stop-color="rgb(35.275269%, 84.779358%, 92.208862%)" offset="0.789062"/><stop stop-opacity="1" stop-color="rgb(35.321045%, 84.976196%, 92.092896%)" offset="0.800781"/><stop stop-opacity="1" stop-color="rgb(35.366821%, 85.174561%, 91.978455%)" offset="0.8125"/><stop stop-opacity="1" stop-color="rgb(35.427856%, 85.438538%, 91.825867%)" offset="0.824219"/><stop stop-opacity="1" stop-color="rgb(35.50415%, 85.768127%, 91.633606%)" offset="0.84375"/><stop stop-opacity="1" stop-color="rgb(35.574341%, 86.064148%, 91.462708%)" offset="0.863281"/><stop stop-opacity="1" stop-color="rgb(35.627747%, 86.294556%, 91.32843%)" offset="0.878906"/><stop stop-opacity="1" stop-color="rgb(35.673523%, 86.49292%, 91.212463%)" offset="0.890625"/><stop stop-opacity="1" stop-color="rgb(35.719299%, 86.689758%, 91.098022%)" offset="0.902344"/><stop stop-opacity="1" stop-color="rgb(35.780334%, 86.953735%, 90.945435%)" offset="0.914062"/><stop stop-opacity="1" stop-color="rgb(35.848999%, 87.249756%, 90.77301%)" offset="0.933594"/><stop stop-opacity="1" stop-color="rgb(35.902405%, 87.481689%, 90.638733%)" offset="0.949219"/><stop stop-opacity="1" stop-color="rgb(35.964966%, 87.745667%, 90.486145%)" offset="0.960938"/><stop stop-opacity="1" stop-color="rgb(36.04126%, 88.07373%, 90.293884%)" offset="0.980469"/><stop stop-opacity="1" stop-color="rgb(36.079407%, 88.238525%, 90.19928%)" offset="1"/></radialGradient><clipPath id="532ae73fe5"><rect x="0" width="303" y="0" height="32"/></clipPath><clipPath id="79b40f4765"><path d="M 89 90 L 311 90 L 311 301 L 89 301 Z M 89 90 " clip-rule="nonzero"/></clipPath><clipPath id="09fe19f8eb"><path d="M 177.726562 43.4375 L 346.605469 149.570312 L 222.230469 347.472656 L 53.351562 241.339844 Z M 177.726562 43.4375 " clip-rule="nonzero"/></clipPath><clipPath id="bd32e2cfa5"><path d="M 276.839844 112.992188 L 306.4375 173.640625 C 313.246094 187.585938 312.363281 204.054688 304.105469 217.195312 L 264.757812 279.800781 C 256.503906 292.941406 242.042969 300.878906 226.527344 300.796875 L 159.042969 300.433594 C 143.761719 300.347656 129.847656 291.605469 123.144531 277.871094 L 93.546875 217.222656 C 86.742188 203.28125 87.625 186.808594 95.882812 173.671875 L 135.226562 111.0625 C 143.484375 97.921875 157.941406 89.984375 173.460938 90.066406 L 240.941406 90.433594 C 256.226562 90.515625 270.136719 99.257812 276.839844 112.992188 Z M 276.839844 112.992188 " clip-rule="nonzero"/></clipPath><clipPath id="a196bfb4c2"><path d="M 0 0 L 222 0 L 222 210.960938 L 0 210.960938 Z M 0 0 " clip-rule="nonzero"/></clipPath><clipPath id="8ba240b5e9"><path d="M 88.726562 -46.5625 L 257.605469 59.570312 L 133.230469 257.472656 L -35.648438 151.339844 Z M 88.726562 -46.5625 " clip-rule="nonzero"/></clipPath><clipPath id="de022b58a8"><path d="M 187.839844 22.992188 L 217.4375 83.640625 C 224.246094 97.585938 223.363281 114.054688 215.105469 127.195312 L 175.757812 189.800781 C 167.503906 202.941406 153.042969 210.878906 137.527344 210.796875 L 70.042969 210.433594 C 54.761719 210.347656 40.847656 201.605469 34.144531 187.871094 L 4.546875 127.222656 C -2.257812 113.28125 -1.375 96.808594 6.882812 83.671875 L 46.226562 21.0625 C 54.484375 7.921875 68.941406 -0.015625 84.460938 0.0664062 L 151.941406 0.433594 C 167.226562 0.515625 181.136719 9.257812 187.839844 22.992188 Z M 187.839844 22.992188 " clip-rule="nonzero"/></clipPath><clipPath id="3a16fe7041"><path d="M 92.457031 -52.5 L 261.335938 53.632812 L 129.5 263.410156 L -39.378906 157.277344 Z M 92.457031 -52.5 " clip-rule="nonzero"/></clipPath><clipPath id="a0635bd8d5"><path d="M 88.671875 -46.476562 L 257.550781 59.65625 L 133.316406 257.335938 L -35.558594 151.203125 Z M 88.671875 -46.476562 " clip-rule="nonzero"/></clipPath><radialGradient gradientTransform="matrix(0.84668, 0.532102, -0.532102, 0.84668, 92.458967, -52.50125)" gradientUnits="userSpaceOnUse" r="307.073062" cx="0" id="f79193b6cc" cy="7.117407" fx="0" fy="7.117407"><stop stop-opacity="1" stop-color="rgb(54.862976%, 32.267761%, 99.980164%)" offset="0"/><stop stop-opacity="1" stop-color="rgb(54.788208%, 32.487488%, 99.940491%)" offset="0.00390625"/><stop stop-opacity="1" stop-color="rgb(54.714966%, 32.707214%, 99.902344%)" offset="0.0078125"/><stop stop-opacity="1" stop-color="rgb(54.641724%, 32.925415%, 99.864197%)" offset="0.0117188"/><stop stop-opacity="1" stop-color="rgb(54.568481%, 33.145142%, 99.82605%)" offset="0.015625"/><stop stop-opacity="1" stop-color="rgb(54.495239%, 33.363342%, 99.787903%)" offset="0.0195312"/><stop stop-opacity="1" stop-color="rgb(54.421997%, 33.583069%, 99.749756%)" offset="0.0234375"/><stop stop-opacity="1" stop-color="rgb(54.347229%, 33.80127%, 99.711609%)" offset="0.0273438"/><stop stop-opacity="1" stop-color="rgb(54.273987%, 34.020996%, 99.673462%)" offset="0.03125"/><stop stop-opacity="1" stop-color="rgb(54.200745%, 34.240723%, 99.635315%)" offset="0.0351562"/><stop stop-opacity="1" stop-color="rgb(54.127502%, 34.458923%, 99.597168%)" offset="0.0390625"/><stop stop-opacity="1" stop-color="rgb(54.05426%, 34.67865%, 99.559021%)" offset="0.0429688"/><stop stop-opacity="1" stop-color="rgb(53.979492%, 34.896851%, 99.519348%)" offset="0.046875"/><stop stop-opacity="1" stop-color="rgb(53.90625%, 35.116577%, 99.481201%)" offset="0.0507812"/><stop stop-opacity="1" stop-color="rgb(53.833008%, 35.334778%, 99.443054%)" offset="0.0546875"/><stop stop-opacity="1" stop-color="rgb(53.759766%, 35.554504%, 99.404907%)" offset="0.0585938"/><stop stop-opacity="1" stop-color="rgb(53.686523%, 35.772705%, 99.36676%)" offset="0.0625"/><stop stop-opacity="1" stop-color="rgb(53.613281%, 35.992432%, 99.328613%)" offset="0.0664062"/><stop stop-opacity="1" stop-color="rgb(53.538513%, 36.212158%, 99.290466%)" offset="0.0703125"/><stop stop-opacity="1" stop-color="rgb(53.465271%, 36.430359%, 99.252319%)" offset="0.0742188"/><stop stop-opacity="1" stop-color="rgb(53.392029%, 36.650085%, 99.214172%)" offset="0.078125"/><stop stop-opacity="1" stop-color="rgb(53.318787%, 36.868286%, 99.176025%)" offset="0.0820312"/><stop stop-opacity="1" stop-color="rgb(53.245544%, 37.088013%, 99.137878%)" offset="0.0859375"/><stop stop-opacity="1" stop-color="rgb(53.170776%, 37.306213%, 99.098206%)" offset="0.0898438"/><stop stop-opacity="1" stop-color="rgb(53.097534%, 37.52594%, 99.060059%)" offset="0.09375"/><stop stop-opacity="1" stop-color="rgb(53.024292%, 37.745667%, 99.021912%)" offset="0.0976562"/><stop stop-opacity="1" stop-color="rgb(52.95105%, 37.963867%, 98.983765%)" offset="0.101562"/><stop stop-opacity="1" stop-color="rgb(52.877808%, 38.183594%, 98.945618%)" offset="0.105469"/><stop stop-opacity="1" stop-color="rgb(52.804565%, 38.401794%, 98.907471%)" offset="0.109375"/><stop stop-opacity="1" stop-color="rgb(52.729797%, 38.621521%, 98.869324%)" offset="0.113281"/><stop stop-opacity="1" stop-color="rgb(52.656555%, 38.839722%, 98.831177%)" offset="0.117188"/><stop stop-opacity="1" stop-color="rgb(52.583313%, 39.059448%, 98.79303%)" offset="0.121094"/><stop stop-opacity="1" stop-color="rgb(52.510071%, 39.279175%, 98.754883%)" offset="0.125"/><stop stop-opacity="1" stop-color="rgb(52.436829%, 39.497375%, 98.716736%)" offset="0.128906"/><stop stop-opacity="1" stop-color="rgb(52.362061%, 39.717102%, 98.678589%)" offset="0.132812"/><stop stop-opacity="1" stop-color="rgb(52.288818%, 39.935303%, 98.638916%)" offset="0.136719"/><stop stop-opacity="1" stop-color="rgb(52.215576%, 40.155029%, 98.600769%)" offset="0.140625"/><stop stop-opacity="1" stop-color="rgb(52.142334%, 40.37323%, 98.562622%)" offset="0.144531"/><stop stop-opacity="1" stop-color="rgb(52.069092%, 40.592957%, 98.524475%)" offset="0.148438"/><stop stop-opacity="1" stop-color="rgb(51.99585%, 40.811157%, 98.486328%)" offset="0.152344"/><stop stop-opacity="1" stop-color="rgb(51.921082%, 41.030884%, 98.448181%)" offset="0.15625"/><stop stop-opacity="1" stop-color="rgb(51.847839%, 41.25061%, 98.410034%)" offset="0.160156"/><stop stop-opacity="1" stop-color="rgb(51.774597%, 41.468811%, 98.371887%)" offset="0.164062"/><stop stop-opacity="1" stop-color="rgb(51.701355%, 41.688538%, 98.33374%)" offset="0.167969"/><stop stop-opacity="1" stop-color="rgb(51.628113%, 41.906738%, 98.295593%)" offset="0.171875"/><stop stop-opacity="1" stop-color="rgb(51.554871%, 42.126465%, 98.257446%)" offset="0.175781"/><stop stop-opacity="1" stop-color="rgb(51.480103%, 42.344666%, 98.217773%)" offset="0.179688"/><stop stop-opacity="1" stop-color="rgb(51.40686%, 42.564392%, 98.179626%)" offset="0.183594"/><stop stop-opacity="1" stop-color="rgb(51.333618%, 42.784119%, 98.141479%)" offset="0.1875"/><stop stop-opacity="1" stop-color="rgb(51.260376%, 43.002319%, 98.103333%)" offset="0.191406"/><stop stop-opacity="1" stop-color="rgb(51.187134%, 43.222046%, 98.065186%)" offset="0.195312"/><stop stop-opacity="1" stop-color="rgb(51.112366%, 43.440247%, 98.027039%)" offset="0.199219"/><stop stop-opacity="1" stop-color="rgb(51.039124%, 43.659973%, 97.988892%)" offset="0.203125"/><stop stop-opacity="1" stop-color="rgb(50.965881%, 43.878174%, 97.950745%)" offset="0.207031"/><stop stop-opacity="1" stop-color="rgb(50.892639%, 44.0979%, 97.912598%)" offset="0.210938"/><stop stop-opacity="1" stop-color="rgb(50.819397%, 44.317627%, 97.874451%)" offset="0.214844"/><stop stop-opacity="1" stop-color="rgb(50.746155%, 44.535828%, 97.836304%)" offset="0.21875"/><stop stop-opacity="1" stop-color="rgb(50.671387%, 44.755554%, 97.796631%)" offset="0.222656"/><stop stop-opacity="1" stop-color="rgb(50.598145%, 44.973755%, 97.758484%)" offset="0.226562"/><stop stop-opacity="1" stop-color="rgb(50.524902%, 45.193481%, 97.720337%)" offset="0.230469"/><stop stop-opacity="1" stop-color="rgb(50.45166%, 45.411682%, 97.68219%)" offset="0.234375"/><stop stop-opacity="1" stop-color="rgb(50.378418%, 45.631409%, 97.644043%)" offset="0.238281"/><stop stop-opacity="1" stop-color="rgb(50.30365%, 45.849609%, 97.605896%)" offset="0.242188"/><stop stop-opacity="1" stop-color="rgb(50.230408%, 46.069336%, 97.567749%)" offset="0.246094"/><stop stop-opacity="1" stop-color="rgb(50.157166%, 46.289062%, 97.529602%)" offset="0.25"/><stop stop-opacity="1" stop-color="rgb(50.083923%, 46.507263%, 97.491455%)" offset="0.253906"/><stop stop-opacity="1" stop-color="rgb(50.010681%, 46.72699%, 97.453308%)" offset="0.257812"/><stop stop-opacity="1" stop-color="rgb(49.937439%, 46.94519%, 97.415161%)" offset="0.261719"/><stop stop-opacity="1" stop-color="rgb(49.862671%, 47.164917%, 97.377014%)" offset="0.265625"/><stop stop-opacity="1" stop-color="rgb(49.789429%, 47.383118%, 97.337341%)" offset="0.269531"/><stop stop-opacity="1" stop-color="rgb(49.716187%, 47.602844%, 97.299194%)" offset="0.273438"/><stop stop-opacity="1" stop-color="rgb(49.642944%, 47.822571%, 97.261047%)" offset="0.277344"/><stop stop-opacity="1" stop-color="rgb(49.569702%, 48.040771%, 97.2229%)" offset="0.28125"/><stop stop-opacity="1" stop-color="rgb(49.49646%, 48.260498%, 97.184753%)" offset="0.285156"/><stop stop-opacity="1" stop-color="rgb(49.421692%, 48.478699%, 97.146606%)" offset="0.289062"/><stop stop-opacity="1" stop-color="rgb(49.34845%, 48.698425%, 97.108459%)" offset="0.292969"/><stop stop-opacity="1" stop-color="rgb(49.275208%, 48.916626%, 97.070312%)" offset="0.296875"/><stop stop-opacity="1" stop-color="rgb(49.201965%, 49.136353%, 97.032166%)" offset="0.300781"/><stop stop-opacity="1" stop-color="rgb(49.128723%, 49.354553%, 96.994019%)" offset="0.304688"/><stop stop-opacity="1" stop-color="rgb(49.053955%, 49.57428%, 96.955872%)" offset="0.308594"/><stop stop-opacity="1" stop-color="rgb(48.980713%, 49.794006%, 96.916199%)" offset="0.3125"/><stop stop-opacity="1" stop-color="rgb(48.907471%, 50.012207%, 96.878052%)" offset="0.316406"/><stop stop-opacity="1" stop-color="rgb(48.834229%, 50.231934%, 96.839905%)" offset="0.320312"/><stop stop-opacity="1" stop-color="rgb(48.760986%, 50.450134%, 96.801758%)" offset="0.324219"/><stop stop-opacity="1" stop-color="rgb(48.687744%, 50.669861%, 96.763611%)" offset="0.328125"/><stop stop-opacity="1" stop-color="rgb(48.612976%, 50.888062%, 96.725464%)" offset="0.332031"/><stop stop-opacity="1" stop-color="rgb(48.539734%, 51.107788%, 96.687317%)" offset="0.335938"/><stop stop-opacity="1" stop-color="rgb(48.466492%, 51.327515%, 96.64917%)" offset="0.339844"/><stop stop-opacity="1" stop-color="rgb(48.39325%, 51.545715%, 96.611023%)" offset="0.34375"/><stop stop-opacity="1" stop-color="rgb(48.320007%, 51.765442%, 96.572876%)" offset="0.347656"/><stop stop-opacity="1" stop-color="rgb(48.245239%, 51.983643%, 96.534729%)" offset="0.351562"/><stop stop-opacity="1" stop-color="rgb(48.171997%, 52.203369%, 96.495056%)" offset="0.355469"/><stop stop-opacity="1" stop-color="rgb(48.098755%, 52.42157%, 96.456909%)" offset="0.359375"/><stop stop-opacity="1" stop-color="rgb(48.025513%, 52.641296%, 96.418762%)" offset="0.363281"/><stop stop-opacity="1" stop-color="rgb(47.952271%, 52.861023%, 96.380615%)" offset="0.367188"/><stop stop-opacity="1" stop-color="rgb(47.879028%, 53.079224%, 96.342468%)" offset="0.371094"/><stop stop-opacity="1" stop-color="rgb(47.80426%, 53.29895%, 96.304321%)" offset="0.375"/><stop stop-opacity="1" stop-color="rgb(47.731018%, 53.517151%, 96.266174%)" offset="0.378906"/><stop stop-opacity="1" stop-color="rgb(47.657776%, 53.736877%, 96.228027%)" offset="0.382812"/><stop stop-opacity="1" stop-color="rgb(47.584534%, 53.955078%, 96.18988%)" offset="0.386719"/><stop stop-opacity="1" stop-color="rgb(47.511292%, 54.174805%, 96.151733%)" offset="0.390625"/><stop stop-opacity="1" stop-color="rgb(47.436523%, 54.393005%, 96.113586%)" offset="0.394531"/><stop stop-opacity="1" stop-color="rgb(47.363281%, 54.612732%, 96.075439%)" offset="0.398438"/><stop stop-opacity="1" stop-color="rgb(47.290039%, 54.832458%, 96.035767%)" offset="0.402344"/><stop stop-opacity="1" stop-color="rgb(47.216797%, 55.050659%, 95.99762%)" offset="0.40625"/><stop stop-opacity="1" stop-color="rgb(47.143555%, 55.270386%, 95.959473%)" offset="0.410156"/><stop stop-opacity="1" stop-color="rgb(47.070312%, 55.488586%, 95.921326%)" offset="0.414062"/><stop stop-opacity="1" stop-color="rgb(46.995544%, 55.708313%, 95.883179%)" offset="0.417969"/><stop stop-opacity="1" stop-color="rgb(46.922302%, 55.926514%, 95.845032%)" offset="0.421875"/><stop stop-opacity="1" stop-color="rgb(46.84906%, 56.14624%, 95.806885%)" offset="0.425781"/><stop stop-opacity="1" stop-color="rgb(46.775818%, 56.365967%, 95.768738%)" offset="0.429688"/><stop stop-opacity="1" stop-color="rgb(46.702576%, 56.584167%, 95.730591%)" offset="0.433594"/><stop stop-opacity="1" stop-color="rgb(46.629333%, 56.803894%, 95.692444%)" offset="0.4375"/><stop stop-opacity="1" stop-color="rgb(46.554565%, 57.022095%, 95.654297%)" offset="0.441406"/><stop stop-opacity="1" stop-color="rgb(46.481323%, 57.241821%, 95.614624%)" offset="0.445312"/><stop stop-opacity="1" stop-color="rgb(46.408081%, 57.460022%, 95.576477%)" offset="0.449219"/><stop stop-opacity="1" stop-color="rgb(46.334839%, 57.679749%, 95.53833%)" offset="0.453125"/><stop stop-opacity="1" stop-color="rgb(46.261597%, 57.899475%, 95.500183%)" offset="0.457031"/><stop stop-opacity="1" stop-color="rgb(46.186829%, 58.117676%, 95.462036%)" offset="0.460938"/><stop stop-opacity="1" stop-color="rgb(46.113586%, 58.337402%, 95.423889%)" offset="0.464844"/><stop stop-opacity="1" stop-color="rgb(46.040344%, 58.555603%, 95.385742%)" offset="0.46875"/><stop stop-opacity="1" stop-color="rgb(45.967102%, 58.77533%, 95.347595%)" offset="0.472656"/><stop stop-opacity="1" stop-color="rgb(45.89386%, 58.99353%, 95.309448%)" offset="0.476562"/><stop stop-opacity="1" stop-color="rgb(45.820618%, 59.213257%, 95.271301%)" offset="0.480469"/><stop stop-opacity="1" stop-color="rgb(45.74585%, 59.431458%, 95.233154%)" offset="0.484375"/><stop stop-opacity="1" stop-color="rgb(45.672607%, 59.651184%, 95.195007%)" offset="0.488281"/><stop stop-opacity="1" stop-color="rgb(45.599365%, 59.870911%, 95.155334%)" offset="0.492188"/><stop stop-opacity="1" stop-color="rgb(45.526123%, 60.089111%, 95.117188%)" offset="0.496094"/><stop stop-opacity="1" stop-color="rgb(45.452881%, 60.308838%, 95.079041%)" offset="0.5"/><stop stop-opacity="1" stop-color="rgb(45.378113%, 60.527039%, 95.040894%)" offset="0.503906"/><stop stop-opacity="1" stop-color="rgb(45.304871%, 60.746765%, 95.002747%)" offset="0.507812"/><stop stop-opacity="1" stop-color="rgb(45.231628%, 60.964966%, 94.9646%)" offset="0.511719"/><stop stop-opacity="1" stop-color="rgb(45.158386%, 61.184692%, 94.926453%)" offset="0.515625"/><stop stop-opacity="1" stop-color="rgb(45.085144%, 61.404419%, 94.888306%)" offset="0.519531"/><stop stop-opacity="1" stop-color="rgb(45.011902%, 61.62262%, 94.850159%)" offset="0.523438"/><stop stop-opacity="1" stop-color="rgb(44.937134%, 61.842346%, 94.812012%)" offset="0.527344"/><stop stop-opacity="1" stop-color="rgb(44.863892%, 62.060547%, 94.773865%)" offset="0.53125"/><stop stop-opacity="1" stop-color="rgb(44.790649%, 62.280273%, 94.734192%)" offset="0.535156"/><stop stop-opacity="1" stop-color="rgb(44.717407%, 62.498474%, 94.696045%)" offset="0.539062"/><stop stop-opacity="1" stop-color="rgb(44.644165%, 62.718201%, 94.657898%)" offset="0.542969"/><stop stop-opacity="1" stop-color="rgb(44.569397%, 62.937927%, 94.619751%)" offset="0.546875"/><stop stop-opacity="1" stop-color="rgb(44.496155%, 63.156128%, 94.581604%)" offset="0.550781"/><stop stop-opacity="1" stop-color="rgb(44.422913%, 63.375854%, 94.543457%)" offset="0.554688"/><stop stop-opacity="1" stop-color="rgb(44.34967%, 63.594055%, 94.50531%)" offset="0.558594"/><stop stop-opacity="1" stop-color="rgb(44.276428%, 63.813782%, 94.467163%)" offset="0.5625"/><stop stop-opacity="1" stop-color="rgb(44.203186%, 64.031982%, 94.429016%)" offset="0.566406"/><stop stop-opacity="1" stop-color="rgb(44.128418%, 64.251709%, 94.390869%)" offset="0.570312"/><stop stop-opacity="1" stop-color="rgb(44.055176%, 64.46991%, 94.352722%)" offset="0.574219"/><stop stop-opacity="1" stop-color="rgb(43.981934%, 64.689636%, 94.313049%)" offset="0.578125"/><stop stop-opacity="1" stop-color="rgb(43.908691%, 64.909363%, 94.274902%)" offset="0.582031"/><stop stop-opacity="1" stop-color="rgb(43.835449%, 65.127563%, 94.236755%)" offset="0.585938"/><stop stop-opacity="1" stop-color="rgb(43.762207%, 65.34729%, 94.198608%)" offset="0.589844"/><stop stop-opacity="1" stop-color="rgb(43.687439%, 65.565491%, 94.160461%)" offset="0.59375"/><stop stop-opacity="1" stop-color="rgb(43.614197%, 65.785217%, 94.122314%)" offset="0.597656"/><stop stop-opacity="1" stop-color="rgb(43.540955%, 66.003418%, 94.084167%)" offset="0.601562"/><stop stop-opacity="1" stop-color="rgb(43.467712%, 66.223145%, 94.046021%)" offset="0.605469"/><stop stop-opacity="1" stop-color="rgb(43.39447%, 66.442871%, 94.007874%)" offset="0.609375"/><stop stop-opacity="1" stop-color="rgb(43.319702%, 66.661072%, 93.969727%)" offset="0.613281"/><stop stop-opacity="1" stop-color="rgb(43.24646%, 66.880798%, 93.93158%)" offset="0.617188"/><stop stop-opacity="1" stop-color="rgb(43.173218%, 67.098999%, 93.893433%)" offset="0.621094"/><stop stop-opacity="1" stop-color="rgb(43.099976%, 67.318726%, 93.85376%)" offset="0.625"/><stop stop-opacity="1" stop-color="rgb(43.026733%, 67.536926%, 93.815613%)" offset="0.628906"/><stop stop-opacity="1" stop-color="rgb(42.953491%, 67.756653%, 93.777466%)" offset="0.632812"/><stop stop-opacity="1" stop-color="rgb(42.878723%, 67.976379%, 93.739319%)" offset="0.636719"/><stop stop-opacity="1" stop-color="rgb(42.805481%, 68.19458%, 93.701172%)" offset="0.640625"/><stop stop-opacity="1" stop-color="rgb(42.732239%, 68.414307%, 93.663025%)" offset="0.644531"/><stop stop-opacity="1" stop-color="rgb(42.658997%, 68.632507%, 93.624878%)" offset="0.648438"/><stop stop-opacity="1" stop-color="rgb(42.585754%, 68.852234%, 93.586731%)" offset="0.652344"/><stop stop-opacity="1" stop-color="rgb(42.510986%, 69.070435%, 93.548584%)" offset="0.65625"/><stop stop-opacity="1" stop-color="rgb(42.437744%, 69.290161%, 93.510437%)" offset="0.660156"/><stop stop-opacity="1" stop-color="rgb(42.364502%, 69.508362%, 93.47229%)" offset="0.664062"/><stop stop-opacity="1" stop-color="rgb(42.29126%, 69.728088%, 93.432617%)" offset="0.667969"/><stop stop-opacity="1" stop-color="rgb(42.218018%, 69.947815%, 93.39447%)" offset="0.671875"/><stop stop-opacity="1" stop-color="rgb(42.144775%, 70.166016%, 93.356323%)" offset="0.675781"/><stop stop-opacity="1" stop-color="rgb(42.070007%, 70.385742%, 93.318176%)" offset="0.679688"/><stop stop-opacity="1" stop-color="rgb(41.996765%, 70.603943%, 93.280029%)" offset="0.683594"/><stop stop-opacity="1" stop-color="rgb(41.923523%, 70.823669%, 93.241882%)" offset="0.6875"/><stop stop-opacity="1" stop-color="rgb(41.850281%, 71.04187%, 93.203735%)" offset="0.691406"/><stop stop-opacity="1" stop-color="rgb(41.777039%, 71.261597%, 93.165588%)" offset="0.695312"/><stop stop-opacity="1" stop-color="rgb(41.703796%, 71.481323%, 93.127441%)" offset="0.699219"/><stop stop-opacity="1" stop-color="rgb(41.629028%, 71.699524%, 93.089294%)" offset="0.703125"/><stop stop-opacity="1" stop-color="rgb(41.555786%, 71.91925%, 93.051147%)" offset="0.707031"/><stop stop-opacity="1" stop-color="rgb(41.482544%, 72.137451%, 93.011475%)" offset="0.710938"/><stop stop-opacity="1" stop-color="rgb(41.409302%, 72.357178%, 92.973328%)" offset="0.714844"/><stop stop-opacity="1" stop-color="rgb(41.33606%, 72.575378%, 92.935181%)" offset="0.71875"/><stop stop-opacity="1" stop-color="rgb(41.261292%, 72.795105%, 92.897034%)" offset="0.722656"/><stop stop-opacity="1" stop-color="rgb(41.188049%, 73.013306%, 92.858887%)" offset="0.726562"/><stop stop-opacity="1" stop-color="rgb(41.114807%, 73.233032%, 92.82074%)" offset="0.730469"/><stop stop-opacity="1" stop-color="rgb(41.041565%, 73.452759%, 92.782593%)" offset="0.734375"/><stop stop-opacity="1" stop-color="rgb(40.968323%, 73.670959%, 92.744446%)" offset="0.738281"/><stop stop-opacity="1" stop-color="rgb(40.895081%, 73.890686%, 92.706299%)" offset="0.742188"/><stop stop-opacity="1" stop-color="rgb(40.820312%, 74.108887%, 92.668152%)" offset="0.746094"/><stop stop-opacity="1" stop-color="rgb(40.74707%, 74.328613%, 92.630005%)" offset="0.75"/><stop stop-opacity="1" stop-color="rgb(40.673828%, 74.546814%, 92.591858%)" offset="0.753906"/><stop stop-opacity="1" stop-color="rgb(40.600586%, 74.766541%, 92.552185%)" offset="0.757812"/><stop stop-opacity="1" stop-color="rgb(40.527344%, 74.986267%, 92.514038%)" offset="0.761719"/><stop stop-opacity="1" stop-color="rgb(40.452576%, 75.204468%, 92.475891%)" offset="0.765625"/><stop stop-opacity="1" stop-color="rgb(40.379333%, 75.424194%, 92.437744%)" offset="0.769531"/><stop stop-opacity="1" stop-color="rgb(40.306091%, 75.642395%, 92.399597%)" offset="0.773438"/><stop stop-opacity="1" stop-color="rgb(40.232849%, 75.862122%, 92.36145%)" offset="0.777344"/><stop stop-opacity="1" stop-color="rgb(40.159607%, 76.080322%, 92.323303%)" offset="0.78125"/><stop stop-opacity="1" stop-color="rgb(40.086365%, 76.300049%, 92.285156%)" offset="0.785156"/><stop stop-opacity="1" stop-color="rgb(40.011597%, 76.519775%, 92.247009%)" offset="0.789062"/><stop stop-opacity="1" stop-color="rgb(39.938354%, 76.737976%, 92.208862%)" offset="0.792969"/><stop stop-opacity="1" stop-color="rgb(39.865112%, 76.957703%, 92.170715%)" offset="0.796875"/><stop stop-opacity="1" stop-color="rgb(39.79187%, 77.175903%, 92.131042%)" offset="0.800781"/><stop stop-opacity="1" stop-color="rgb(39.718628%, 77.39563%, 92.092896%)" offset="0.804688"/><stop stop-opacity="1" stop-color="rgb(39.64386%, 77.613831%, 92.054749%)" offset="0.808594"/><stop stop-opacity="1" stop-color="rgb(39.570618%, 77.833557%, 92.016602%)" offset="0.8125"/><stop stop-opacity="1" stop-color="rgb(39.497375%, 78.051758%, 91.978455%)" offset="0.816406"/><stop stop-opacity="1" stop-color="rgb(39.424133%, 78.271484%, 91.940308%)" offset="0.820312"/><stop stop-opacity="1" stop-color="rgb(39.350891%, 78.491211%, 91.902161%)" offset="0.824219"/><stop stop-opacity="1" stop-color="rgb(39.277649%, 78.709412%, 91.864014%)" offset="0.828125"/><stop stop-opacity="1" stop-color="rgb(39.202881%, 78.929138%, 91.825867%)" offset="0.832031"/><stop stop-opacity="1" stop-color="rgb(39.129639%, 79.147339%, 91.78772%)" offset="0.835938"/><stop stop-opacity="1" stop-color="rgb(39.056396%, 79.367065%, 91.749573%)" offset="0.839844"/><stop stop-opacity="1" stop-color="rgb(38.983154%, 79.585266%, 91.7099%)" offset="0.84375"/><stop stop-opacity="1" stop-color="rgb(38.909912%, 79.804993%, 91.671753%)" offset="0.847656"/><stop stop-opacity="1" stop-color="rgb(38.83667%, 80.024719%, 91.633606%)" offset="0.851562"/><stop stop-opacity="1" stop-color="rgb(38.761902%, 80.24292%, 91.595459%)" offset="0.855469"/><stop stop-opacity="1" stop-color="rgb(38.68866%, 80.462646%, 91.557312%)" offset="0.859375"/><stop stop-opacity="1" stop-color="rgb(38.615417%, 80.680847%, 91.519165%)" offset="0.863281"/><stop stop-opacity="1" stop-color="rgb(38.542175%, 80.900574%, 91.481018%)" offset="0.867188"/><stop stop-opacity="1" stop-color="rgb(38.468933%, 81.118774%, 91.442871%)" offset="0.871094"/><stop stop-opacity="1" stop-color="rgb(38.394165%, 81.338501%, 91.404724%)" offset="0.875"/><stop stop-opacity="1" stop-color="rgb(38.320923%, 81.558228%, 91.366577%)" offset="0.878906"/><stop stop-opacity="1" stop-color="rgb(38.247681%, 81.776428%, 91.32843%)" offset="0.882812"/><stop stop-opacity="1" stop-color="rgb(38.174438%, 81.996155%, 91.290283%)" offset="0.886719"/><stop stop-opacity="1" stop-color="rgb(38.101196%, 82.214355%, 91.25061%)" offset="0.890625"/><stop stop-opacity="1" stop-color="rgb(38.027954%, 82.434082%, 91.212463%)" offset="0.894531"/><stop stop-opacity="1" stop-color="rgb(37.953186%, 82.652283%, 91.174316%)" offset="0.898438"/><stop stop-opacity="1" stop-color="rgb(37.879944%, 82.872009%, 91.136169%)" offset="0.902344"/><stop stop-opacity="1" stop-color="rgb(37.806702%, 83.09021%, 91.098022%)" offset="0.90625"/><stop stop-opacity="1" stop-color="rgb(37.733459%, 83.309937%, 91.059875%)" offset="0.910156"/><stop stop-opacity="1" stop-color="rgb(37.660217%, 83.529663%, 91.021729%)" offset="0.914062"/><stop stop-opacity="1" stop-color="rgb(37.585449%, 83.747864%, 90.983582%)" offset="0.917969"/><stop stop-opacity="1" stop-color="rgb(37.512207%, 83.96759%, 90.945435%)" offset="0.921875"/><stop stop-opacity="1" stop-color="rgb(37.438965%, 84.185791%, 90.907288%)" offset="0.925781"/><stop stop-opacity="1" stop-color="rgb(37.365723%, 84.405518%, 90.869141%)" offset="0.929688"/><stop stop-opacity="1" stop-color="rgb(37.29248%, 84.623718%, 90.829468%)" offset="0.933594"/><stop stop-opacity="1" stop-color="rgb(37.219238%, 84.843445%, 90.791321%)" offset="0.9375"/><stop stop-opacity="1" stop-color="rgb(37.14447%, 85.063171%, 90.753174%)" offset="0.941406"/><stop stop-opacity="1" stop-color="rgb(37.071228%, 85.281372%, 90.715027%)" offset="0.945312"/><stop stop-opacity="1" stop-color="rgb(36.997986%, 85.501099%, 90.67688%)" offset="0.949219"/><stop stop-opacity="1" stop-color="rgb(36.924744%, 85.719299%, 90.638733%)" offset="0.953125"/><stop stop-opacity="1" stop-color="rgb(36.851501%, 85.939026%, 90.600586%)" offset="0.957031"/><stop stop-opacity="1" stop-color="rgb(36.778259%, 86.157227%, 90.562439%)" offset="0.960938"/><stop stop-opacity="1" stop-color="rgb(36.703491%, 86.376953%, 90.524292%)" offset="0.964844"/><stop stop-opacity="1" stop-color="rgb(36.630249%, 86.59668%, 90.486145%)" offset="0.96875"/><stop stop-opacity="1" stop-color="rgb(36.557007%, 86.81488%, 90.447998%)" offset="0.972656"/><stop stop-opacity="1" stop-color="rgb(36.483765%, 87.034607%, 90.409851%)" offset="0.976562"/><stop stop-opacity="1" stop-color="rgb(36.410522%, 87.252808%, 90.370178%)" offset="0.980469"/><stop stop-opacity="1" stop-color="rgb(36.335754%, 87.472534%, 90.332031%)" offset="0.984375"/><stop stop-opacity="1" stop-color="rgb(36.262512%, 87.690735%, 90.293884%)" offset="0.988281"/><stop stop-opacity="1" stop-color="rgb(36.18927%, 87.910461%, 90.255737%)" offset="0.992188"/><stop stop-opacity="1" stop-color="rgb(36.116028%, 88.128662%, 90.21759%)" offset="0.996094"/><stop stop-opacity="1" stop-color="rgb(36.079407%, 88.238525%, 90.19928%)" offset="1"/></radialGradient><clipPath id="d98c7d57d8"><rect x="0" width="222" y="0" height="211"/></clipPath><clipPath id="6fd338f180"><rect x="0" width="61" y="0" height="167"/></clipPath><clipPath id="adfa0eafd7"><rect x="0" width="71" y="0" height="162"/></clipPath><clipPath id="d21d5b25a5"><rect x="0" width="71" y="0" height="167"/></clipPath><clipPath id="c37acfa46b"><path d="M 172.503906 194 L 176.828125 194 L 176.828125 197.695312 L 172.503906 197.695312 Z M 172.503906 194 " clip-rule="nonzero"/></clipPath><clipPath id="71dabba9b8"><path d="M 176.824219 195.351562 C 174.914062 198.351562 173.097656 197.804688 172.734375 197.167969 C 172.277344 196.535156 172.644531 194.625 173.277344 194.171875 C 173.824219 193.714844 176.277344 194.351562 176.277344 194.351562 " clip-rule="nonzero"/></clipPath><clipPath id="89763bf16d"><path d="M 0.503906 0 L 4.828125 0 L 4.828125 3.695312 L 0.503906 3.695312 Z M 0.503906 0 " clip-rule="nonzero"/></clipPath><clipPath id="17b3dd39e6"><path d="M 4.824219 1.351562 C 2.914062 4.351562 1.097656 3.804688 0.734375 3.167969 C 0.277344 2.535156 0.644531 0.625 1.277344 0.171875 C 1.824219 -0.285156 4.277344 0.351562 4.277344 0.351562 " clip-rule="nonzero"/></clipPath><clipPath id="bb4667faae"><rect x="0" width="5" y="0" height="4"/></clipPath><clipPath id="f7db5c6b61"><path d="M 142.855469 165.382812 L 182.527344 165.382812 L 182.527344 222.605469 L 142.855469 222.605469 Z M 142.855469 165.382812 " clip-rule="nonzero"/></clipPath><clipPath id="39383fc903"><path d="M 143.109375 217.34375 C 154.195312 192.898438 158.285156 185.539062 161.191406 181.085938 C 163.007812 178.269531 164.007812 176.722656 166.191406 174.542969 C 169.007812 171.632812 174.097656 166.453125 176.914062 165.726562 C 178.457031 165.273438 179.914062 165.726562 180.820312 166.363281 C 181.640625 166.816406 182.09375 167.816406 182.367188 168.632812 C 182.546875 169.453125 182.640625 170.453125 182.183594 171.269531 C 181.730469 172.269531 180.277344 173.542969 179.1875 173.816406 C 178.277344 174.085938 177.277344 173.996094 176.460938 173.542969 C 175.550781 172.996094 174.277344 171.542969 174.097656 170.453125 C 173.914062 169.269531 174.640625 167.453125 175.367188 166.636719 C 176.003906 166 176.914062 165.542969 177.824219 165.542969 C 178.914062 165.453125 180.730469 166.179688 181.457031 167 C 182.183594 167.636719 182.457031 168.632812 182.457031 169.542969 C 182.546875 170.363281 182.457031 171.089844 181.820312 172.089844 C 180.277344 174.449219 173.460938 178.902344 171.097656 181.355469 C 169.824219 182.71875 169.554688 183.265625 168.460938 184.992188 C 166.097656 188.535156 161.554688 196.441406 158.375 202.351562 C 155.195312 208.4375 151.832031 218.527344 149.558594 221.160156 C 148.652344 222.070312 148.105469 222.433594 147.289062 222.523438 C 146.46875 222.707031 145.378906 222.523438 144.652344 222.070312 C 143.925781 221.707031 143.289062 220.796875 143.015625 220.070312 C 142.746094 219.253906 143.109375 217.34375 143.109375 217.34375 " clip-rule="nonzero"/></clipPath><clipPath id="a6eb28ba66"><path d="M 0.855469 0.382812 L 40.527344 0.382812 L 40.527344 57.605469 L 0.855469 57.605469 Z M 0.855469 0.382812 " clip-rule="nonzero"/></clipPath><clipPath id="f7f67a8e56"><path d="M 1.109375 52.34375 C 12.195312 27.898438 16.285156 20.539062 19.191406 16.085938 C 21.007812 13.269531 22.007812 11.722656 24.191406 9.542969 C 27.007812 6.632812 32.097656 1.453125 34.914062 0.726562 C 36.457031 0.273438 37.914062 0.726562 38.820312 1.363281 C 39.640625 1.816406 40.09375 2.816406 40.367188 3.632812 C 40.546875 4.453125 40.640625 5.453125 40.183594 6.269531 C 39.730469 7.269531 38.277344 8.542969 37.1875 8.816406 C 36.277344 9.085938 35.277344 8.996094 34.460938 8.542969 C 33.550781 7.996094 32.277344 6.542969 32.097656 5.453125 C 31.914062 4.269531 32.640625 2.453125 33.367188 1.636719 C 34.003906 1 34.914062 0.542969 35.824219 0.542969 C 36.914062 0.453125 38.730469 1.179688 39.457031 2 C 40.183594 2.636719 40.457031 3.632812 40.457031 4.542969 C 40.546875 5.363281 40.457031 6.089844 39.820312 7.089844 C 38.277344 9.449219 31.460938 13.902344 29.097656 16.355469 C 27.824219 17.71875 27.554688 18.265625 26.460938 19.992188 C 24.097656 23.535156 19.554688 31.441406 16.375 37.351562 C 13.195312 43.4375 9.832031 53.527344 7.558594 56.160156 C 6.652344 57.070312 6.105469 57.433594 5.289062 57.523438 C 4.46875 57.707031 3.378906 57.523438 2.652344 57.070312 C 1.925781 56.707031 1.289062 55.796875 1.015625 55.070312 C 0.746094 54.253906 1.109375 52.34375 1.109375 52.34375 " clip-rule="nonzero"/></clipPath><clipPath id="05d23a73a0"><rect x="0" width="41" y="0" height="58"/></clipPath><clipPath id="a608a670bc"><path d="M 214.402344 171.589844 L 238.179688 171.589844 L 238.179688 216.609375 L 214.402344 216.609375 Z M 214.402344 171.589844 " clip-rule="nonzero"/></clipPath><clipPath id="31011d33e7"><path d="M 238.164062 176.085938 C 232.621094 200.988281 231.621094 202.714844 230.257812 204.894531 C 228.894531 207.167969 227.621094 209.527344 225.625 211.253906 C 223.261719 213.347656 218.351562 216.617188 216.535156 216.164062 C 215.445312 215.800781 214.71875 213.890625 214.535156 212.890625 C 214.445312 211.984375 214.71875 211.074219 215.265625 210.347656 C 215.898438 209.527344 217.445312 208.53125 218.625 208.53125 C 219.714844 208.53125 221.351562 209.347656 221.988281 210.347656 C 222.625 211.253906 222.714844 213.074219 222.441406 214.074219 C 222.171875 214.980469 221.535156 215.707031 220.714844 216.070312 C 219.808594 216.617188 217.898438 216.707031 216.898438 216.34375 C 216.082031 215.980469 215.445312 215.253906 214.992188 214.527344 C 214.628906 213.800781 214.355469 212.800781 214.628906 211.984375 C 214.808594 210.984375 215.898438 209.4375 216.898438 208.894531 C 217.898438 208.4375 220.445312 209.621094 220.714844 209.074219 C 220.988281 208.710938 219.082031 207.621094 219.082031 206.53125 C 219.171875 204.078125 224.261719 200.167969 226.167969 195.714844 C 228.804688 189.71875 229.441406 176.085938 231.53125 173.085938 C 232.257812 172.179688 232.984375 171.90625 233.800781 171.722656 C 234.621094 171.632812 235.710938 171.632812 236.4375 172.179688 C 237.253906 172.90625 238.164062 176.085938 238.164062 176.085938 " clip-rule="nonzero"/></clipPath><clipPath id="46f7be515c"><path d="M 0.402344 0.601562 L 24.179688 0.601562 L 24.179688 45.609375 L 0.402344 45.609375 Z M 0.402344 0.601562 " clip-rule="nonzero"/></clipPath><clipPath id="e40b38fdae"><path d="M 24.164062 5.085938 C 18.621094 29.988281 17.621094 31.714844 16.257812 33.894531 C 14.894531 36.167969 13.621094 38.527344 11.625 40.253906 C 9.261719 42.347656 4.351562 45.617188 2.535156 45.164062 C 1.445312 44.800781 0.71875 42.890625 0.535156 41.890625 C 0.445312 40.984375 0.71875 40.074219 1.265625 39.347656 C 1.898438 38.527344 3.445312 37.53125 4.625 37.53125 C 5.714844 37.53125 7.351562 38.347656 7.988281 39.347656 C 8.625 40.253906 8.714844 42.074219 8.441406 43.074219 C 8.171875 43.980469 7.535156 44.707031 6.714844 45.070312 C 5.808594 45.617188 3.898438 45.707031 2.898438 45.34375 C 2.082031 44.980469 1.445312 44.253906 0.992188 43.527344 C 0.628906 42.800781 0.355469 41.800781 0.628906 40.984375 C 0.808594 39.984375 1.898438 38.4375 2.898438 37.894531 C 3.898438 37.4375 6.445312 38.621094 6.714844 38.074219 C 6.988281 37.710938 5.082031 36.621094 5.082031 35.53125 C 5.171875 33.078125 10.261719 29.167969 12.167969 24.714844 C 14.804688 18.71875 15.441406 5.085938 17.53125 2.085938 C 18.257812 1.179688 18.984375 0.90625 19.800781 0.722656 C 20.621094 0.632812 21.710938 0.632812 22.4375 1.179688 C 23.253906 1.90625 24.164062 5.085938 24.164062 5.085938 " clip-rule="nonzero"/></clipPath><clipPath id="165fda72c8"><rect x="0" width="25" y="0" height="46"/></clipPath></defs><g clip-path="url(#76448192a9)"><g clip-path="url(#7faeedb009)"><g transform="matrix(1, 0, 0, 1, 166, 90)"><g clip-path="url(#290e998d0b)"><g clip-path="url(#04e41afba6)"><g clip-path="url(#c773706b30)"><path fill="url(#e3543dea5f)" d="M 0.691406 0.855469 L 0.691406 210.007812 L 490.714844 210.007812 L 490.714844 0.855469 Z M 0.691406 0.855469 " fill-rule="nonzero"/></g></g></g></g></g></g><g clip-path="url(#5a9b89dc0d)"><g clip-path="url(#dae17c8d1a)"><path stroke-linecap="butt" transform="matrix(0.75, 0, 0, 0.75, 139.389741, 90.855712)" fill="none" stroke-linejoin="miter" d="M 644.121053 -0.000323845 L 82.05848 -0.000323845 C 65.49077 -0.000323845 50.225143 8.978844 42.173059 23.458013 C 34.120974 37.931973 34.542849 55.640308 43.282434 69.713227 C 69.792854 112.411149 69.792854 166.447614 43.282434 209.145537 C 34.542849 223.218455 34.120974 240.926791 42.173059 255.400751 C 50.225143 269.879919 65.49077 278.859087 82.05848 278.859087 L 644.121053 278.859087 C 660.688764 278.859087 675.954391 269.879919 684.011683 255.400751 C 692.063768 240.926791 691.636684 223.218455 682.8971 209.145537 C 656.38668 166.447614 656.38668 112.411149 682.8971 69.713227 C 691.636684 55.640308 692.063768 37.931973 684.011683 23.458013 C 675.954391 8.978844 660.688764 -0.000323845 644.121053 -0.000323845 Z M 644.121053 -0.000323845 " stroke="url(#a43b7deff8)" stroke-width="16" stroke-miterlimit="4"/></g></g><g fill="#534780" fill-opacity="1"><g transform="translate(323.042008, 156.839433)"><g><path d="M 7.84375 0.875 C 5.664062 0.875 3.820312 0.320312 2.3125 -0.78125 C 0.800781 -1.894531 0.046875 -3.285156 0.046875 -4.953125 C 0.046875 -6.222656 0.410156 -7.296875 1.140625 -8.171875 C 1.867188 -9.046875 2.867188 -9.484375 4.140625 -9.484375 C 5.304688 -9.484375 6.1875 -9.132812 6.78125 -8.4375 C 7.382812 -7.75 7.703125 -6.914062 7.734375 -5.9375 C 7.773438 -5.351562 7.613281 -4.679688 7.25 -3.921875 C 7.394531 -3.597656 7.640625 -3.367188 7.984375 -3.234375 C 8.328125 -3.109375 8.644531 -3.046875 8.9375 -3.046875 C 10.53125 -3.046875 11.328125 -4.484375 11.328125 -7.359375 L 11.328125 -29.203125 C 11.328125 -31.640625 11.398438 -33.273438 11.546875 -34.109375 L 7.46875 -33.9375 L 7.46875 -38.140625 L 23.09375 -38.140625 L 23.09375 -34.546875 C 22.113281 -34.503906 21.367188 -34.382812 20.859375 -34.1875 C 20.359375 -33.988281 19.960938 -33.5625 19.671875 -32.90625 C 19.378906 -32.25 19.234375 -31.210938 19.234375 -29.796875 L 19.234375 -13.84375 C 19.234375 -8.71875 18.28125 -4.984375 16.375 -2.640625 C 14.46875 -0.296875 11.625 0.875 7.84375 0.875 Z M 7.84375 0.875 "/></g></g></g><g fill="#534780" fill-opacity="1"><g transform="translate(347.607391, 156.839433)"><g><path d="M 2.71875 -3.59375 C 3.695312 -3.632812 4.441406 -3.753906 4.953125 -3.953125 C 5.460938 -4.148438 5.863281 -4.578125 6.15625 -5.234375 C 6.445312 -5.890625 6.59375 -6.925781 6.59375 -8.34375 L 6.59375 -29.203125 C 6.59375 -31.234375 6.664062 -32.867188 6.8125 -34.109375 L 2.71875 -33.9375 L 2.71875 -38.140625 L 29.96875 -38.140625 L 30.296875 -27.5625 L 26.703125 -27.5625 C 26.703125 -30.25 26.054688 -32.109375 24.765625 -33.140625 C 23.472656 -34.179688 21.921875 -34.664062 20.109375 -34.59375 L 18.140625 -34.546875 C 17.265625 -34.503906 16.570312 -34.382812 16.0625 -34.1875 C 15.5625 -33.988281 15.175781 -33.539062 14.90625 -32.84375 C 14.632812 -32.15625 14.5 -31.140625 14.5 -29.796875 L 14.5 -21.625 L 20.875 -21.625 C 20.832031 -22.25 20.757812 -23.832031 20.65625 -26.375 L 24.84375 -26.375 L 24.84375 -13.125 L 21.25 -13.125 C 21.25 -14.582031 21.019531 -15.65625 20.5625 -16.34375 C 20.113281 -17.03125 19.523438 -17.472656 18.796875 -17.671875 C 18.066406 -17.878906 17.101562 -17.960938 15.90625 -17.921875 L 14.5 -17.875 L 14.5 -8.9375 C 14.5 -6.976562 14.425781 -5.378906 14.28125 -4.140625 L 21.578125 -4.140625 C 23.429688 -4.140625 25 -4.765625 26.28125 -6.015625 C 27.570312 -7.273438 28.21875 -9.265625 28.21875 -11.984375 L 31.765625 -11.984375 L 31.484375 0 L 2.71875 0 Z M 2.71875 -3.59375 "/></g></g></g><g fill="#534780" fill-opacity="1"><g transform="translate(381.595849, 156.839433)"><g><path d="M 14.28125 -21.734375 C 13.363281 -22.898438 12.363281 -24.265625 11.28125 -25.828125 L 11.21875 -25.828125 L 11.328125 -8.9375 C 11.328125 -6.90625 11.253906 -5.269531 11.109375 -4.03125 C 12.273438 -4.132812 13.640625 -4.1875 15.203125 -4.1875 L 15.203125 0 L 2.78125 0 L 2.78125 -3.59375 C 3.757812 -3.632812 4.503906 -3.753906 5.015625 -3.953125 C 5.523438 -4.148438 5.921875 -4.578125 6.203125 -5.234375 C 6.492188 -5.890625 6.640625 -6.925781 6.640625 -8.34375 L 6.53125 -29.203125 C 6.53125 -31.640625 6.601562 -33.273438 6.75 -34.109375 L 2.609375 -33.9375 L 2.609375 -38.140625 L 11.171875 -38.140625 L 27.84375 -17.109375 C 29.363281 -15.109375 30.632812 -13.382812 31.65625 -11.9375 L 31.703125 -11.9375 L 31.703125 -29.203125 C 31.703125 -31.566406 31.757812 -33.203125 31.875 -34.109375 L 27.78125 -33.9375 L 27.78125 -38.140625 L 40.203125 -38.140625 L 40.203125 -34.546875 C 39.222656 -34.503906 38.476562 -34.382812 37.96875 -34.1875 C 37.46875 -33.988281 37.070312 -33.5625 36.78125 -32.90625 C 36.488281 -32.25 36.34375 -31.210938 36.34375 -29.796875 L 36.34375 0.546875 L 31.703125 0.546875 Z M 14.28125 -21.734375 "/></g></g></g><g fill="#534780" fill-opacity="1"><g transform="translate(423.700148, 156.839433)"><g><path d="M 14.28125 -21.734375 C 13.363281 -22.898438 12.363281 -24.265625 11.28125 -25.828125 L 11.21875 -25.828125 L 11.328125 -8.9375 C 11.328125 -6.90625 11.253906 -5.269531 11.109375 -4.03125 C 12.273438 -4.132812 13.640625 -4.1875 15.203125 -4.1875 L 15.203125 0 L 2.78125 0 L 2.78125 -3.59375 C 3.757812 -3.632812 4.503906 -3.753906 5.015625 -3.953125 C 5.523438 -4.148438 5.921875 -4.578125 6.203125 -5.234375 C 6.492188 -5.890625 6.640625 -6.925781 6.640625 -8.34375 L 6.53125 -29.203125 C 6.53125 -31.640625 6.601562 -33.273438 6.75 -34.109375 L 2.609375 -33.9375 L 2.609375 -38.140625 L 11.171875 -38.140625 L 27.84375 -17.109375 C 29.363281 -15.109375 30.632812 -13.382812 31.65625 -11.9375 L 31.703125 -11.9375 L 31.703125 -29.203125 C 31.703125 -31.566406 31.757812 -33.203125 31.875 -34.109375 L 27.78125 -33.9375 L 27.78125 -38.140625 L 40.203125 -38.140625 L 40.203125 -34.546875 C 39.222656 -34.503906 38.476562 -34.382812 37.96875 -34.1875 C 37.46875 -33.988281 37.070312 -33.5625 36.78125 -32.90625 C 36.488281 -32.25 36.34375 -31.210938 36.34375 -29.796875 L 36.34375 0.546875 L 31.703125 0.546875 Z M 14.28125 -21.734375 "/></g></g></g><g fill="#534780" fill-opacity="1"><g transform="translate(465.804447, 156.839433)"><g><path d="M 2.71875 -3.59375 C 3.695312 -3.632812 4.441406 -3.753906 4.953125 -3.953125 C 5.460938 -4.148438 5.863281 -4.578125 6.15625 -5.234375 C 6.445312 -5.890625 6.59375 -6.925781 6.59375 -8.34375 L 6.59375 -29.203125 C 6.59375 -31.234375 6.664062 -32.867188 6.8125 -34.109375 L 2.71875 -33.9375 L 2.71875 -38.140625 L 18.359375 -38.140625 L 18.359375 -34.546875 C 17.378906 -34.503906 16.632812 -34.382812 16.125 -34.1875 C 15.613281 -33.988281 15.210938 -33.5625 14.921875 -32.90625 C 14.640625 -32.25 14.5 -31.210938 14.5 -29.796875 L 14.5 -8.9375 C 14.5 -6.90625 14.425781 -5.269531 14.28125 -4.03125 C 15.4375 -4.132812 16.796875 -4.1875 18.359375 -4.1875 L 18.359375 0 L 2.71875 0 Z M 2.71875 -3.59375 "/></g></g></g><g fill="#534780" fill-opacity="1"><g transform="translate(486.883833, 156.839433)"><g><path d="M 2.71875 -3.59375 C 3.695312 -3.632812 4.441406 -3.753906 4.953125 -3.953125 C 5.460938 -4.148438 5.863281 -4.578125 6.15625 -5.234375 C 6.445312 -5.890625 6.59375 -6.925781 6.59375 -8.34375 L 6.59375 -29.203125 C 6.59375 -31.234375 6.664062 -32.867188 6.8125 -34.109375 L 2.71875 -33.9375 L 2.71875 -38.140625 L 29.96875 -38.140625 L 30.296875 -27.5625 L 26.703125 -27.5625 C 26.703125 -30.25 26.054688 -32.109375 24.765625 -33.140625 C 23.472656 -34.179688 21.921875 -34.664062 20.109375 -34.59375 L 18.140625 -34.546875 C 17.265625 -34.503906 16.570312 -34.382812 16.0625 -34.1875 C 15.5625 -33.988281 15.175781 -33.539062 14.90625 -32.84375 C 14.632812 -32.15625 14.5 -31.140625 14.5 -29.796875 L 14.5 -20.328125 L 20.109375 -20.328125 C 20.066406 -20.796875 19.992188 -22.359375 19.890625 -25.015625 L 24.078125 -25.015625 L 24.078125 -11.765625 L 20.484375 -11.765625 C 20.484375 -13.222656 20.253906 -14.304688 19.796875 -15.015625 C 19.347656 -15.722656 18.75 -16.164062 18 -16.34375 C 17.257812 -16.53125 16.304688 -16.601562 15.140625 -16.5625 L 14.5 -16.5625 L 14.5 -8.9375 C 14.5 -6.90625 14.425781 -5.269531 14.28125 -4.03125 C 15.4375 -4.132812 17.050781 -4.1875 19.125 -4.1875 L 19.125 0 L 2.71875 0 Z M 2.71875 -3.59375 "/></g></g></g><g fill="#534780" fill-opacity="1"><g transform="translate(517.985462, 156.839433)"><g><path d="M 2.71875 -3.59375 C 3.695312 -3.632812 4.441406 -3.753906 4.953125 -3.953125 C 5.460938 -4.148438 5.863281 -4.578125 6.15625 -5.234375 C 6.445312 -5.890625 6.59375 -6.925781 6.59375 -8.34375 L 6.59375 -29.203125 C 6.59375 -31.234375 6.664062 -32.867188 6.8125 -34.109375 L 2.71875 -33.9375 L 2.71875 -38.140625 L 29.96875 -38.140625 L 30.296875 -27.5625 L 26.703125 -27.5625 C 26.703125 -30.25 26.054688 -32.109375 24.765625 -33.140625 C 23.472656 -34.179688 21.921875 -34.664062 20.109375 -34.59375 L 18.140625 -34.546875 C 17.265625 -34.503906 16.570312 -34.382812 16.0625 -34.1875 C 15.5625 -33.988281 15.175781 -33.539062 14.90625 -32.84375 C 14.632812 -32.15625 14.5 -31.140625 14.5 -29.796875 L 14.5 -21.625 L 20.875 -21.625 C 20.832031 -22.25 20.757812 -23.832031 20.65625 -26.375 L 24.84375 -26.375 L 24.84375 -13.125 L 21.25 -13.125 C 21.25 -14.582031 21.019531 -15.65625 20.5625 -16.34375 C 20.113281 -17.03125 19.523438 -17.472656 18.796875 -17.671875 C 18.066406 -17.878906 17.101562 -17.960938 15.90625 -17.921875 L 14.5 -17.875 L 14.5 -8.9375 C 14.5 -6.976562 14.425781 -5.378906 14.28125 -4.140625 L 21.578125 -4.140625 C 23.429688 -4.140625 25 -4.765625 26.28125 -6.015625 C 27.570312 -7.273438 28.21875 -9.265625 28.21875 -11.984375 L 31.765625 -11.984375 L 31.484375 0 L 2.71875 0 Z M 2.71875 -3.59375 "/></g></g></g><g fill="#534780" fill-opacity="1"><g transform="translate(551.973909, 156.839433)"><g><path d="M 2.71875 -3.59375 C 3.695312 -3.632812 4.441406 -3.753906 4.953125 -3.953125 C 5.460938 -4.148438 5.863281 -4.578125 6.15625 -5.234375 C 6.445312 -5.890625 6.59375 -6.925781 6.59375 -8.34375 L 6.59375 -29.203125 C 6.59375 -31.234375 6.664062 -32.867188 6.8125 -34.109375 L 2.71875 -33.9375 L 2.71875 -38.140625 L 18.203125 -38.25 C 23.171875 -38.28125 27.007812 -37.40625 29.71875 -35.625 C 32.425781 -33.851562 33.78125 -30.96875 33.78125 -26.96875 C 33.78125 -24.457031 32.972656 -22.226562 31.359375 -20.28125 C 29.742188 -18.34375 27.351562 -16.921875 24.1875 -16.015625 L 24.1875 -15.96875 C 24.84375 -15.707031 25.515625 -15.257812 26.203125 -14.625 C 26.890625 -13.988281 27.472656 -13.289062 27.953125 -12.53125 L 30.515625 -8.71875 C 31.742188 -6.789062 32.765625 -5.460938 33.578125 -4.734375 C 34.398438 -4.015625 35.410156 -3.632812 36.609375 -3.59375 L 36.609375 0 L 27.625 0 C 27.007812 -0.4375 26.390625 -1.0625 25.765625 -1.875 C 25.148438 -2.695312 24.441406 -3.78125 23.640625 -5.125 L 19.609375 -11.65625 C 18.703125 -13.113281 17.941406 -14.164062 17.328125 -14.8125 L 14.5 -14.8125 L 14.5 -8.984375 C 14.5 -6.921875 14.425781 -5.269531 14.28125 -4.03125 C 15.4375 -4.132812 16.976562 -4.1875 18.90625 -4.1875 L 18.90625 0 L 2.71875 0 Z M 17.109375 -18.75 C 20.085938 -18.75 22.238281 -19.410156 23.5625 -20.734375 C 24.882812 -22.054688 25.546875 -24.132812 25.546875 -26.96875 C 25.546875 -29.976562 24.773438 -31.972656 23.234375 -32.953125 C 21.691406 -33.941406 19.992188 -34.4375 18.140625 -34.4375 C 16.867188 -34.4375 15.941406 -34.160156 15.359375 -33.609375 C 14.785156 -33.066406 14.5 -31.90625 14.5 -30.125 L 14.5 -18.953125 C 15.582031 -18.816406 16.453125 -18.75 17.109375 -18.75 Z M 17.109375 -18.75 "/></g></g></g><g fill="#534780" fill-opacity="1"><g transform="translate(589.350585, 156.839433)"><g/></g></g><g fill="#534780" fill-opacity="1"><g transform="translate(401.698257, 218.339429)"><g><path d="M 20.59375 0.875 C 16.925781 0.875 13.675781 0.0195312 10.84375 -1.6875 C 8.007812 -3.394531 5.8125 -5.726562 4.25 -8.6875 C 2.6875 -11.644531 1.90625 -14.925781 1.90625 -18.53125 C 1.90625 -21.976562 2.640625 -25.269531 4.109375 -28.40625 C 5.578125 -31.550781 7.742188 -34.101562 10.609375 -36.0625 C 13.484375 -38.03125 16.9375 -39.015625 20.96875 -39.015625 C 22.425781 -39.015625 24 -38.773438 25.6875 -38.296875 C 27.375 -37.828125 28.925781 -37.175781 30.34375 -36.34375 L 30.40625 -36.34375 L 30.1875 -38.625 L 34.375 -38.625 L 34.375 -25.9375 L 30.84375 -25.9375 C 29.851562 -31.96875 26.800781 -35.019531 21.6875 -35.09375 C 19.25 -35.09375 17.1875 -34.375 15.5 -32.9375 C 13.8125 -31.5 12.550781 -29.597656 11.71875 -27.234375 C 10.882812 -24.878906 10.46875 -22.335938 10.46875 -19.609375 C 10.46875 -16.484375 10.921875 -13.703125 11.828125 -11.265625 C 12.734375 -8.835938 14.039062 -6.941406 15.75 -5.578125 C 17.457031 -4.222656 19.507812 -3.546875 21.90625 -3.546875 C 24.226562 -3.546875 26.503906 -4.144531 28.734375 -5.34375 C 30.972656 -6.539062 32.851562 -8.175781 34.375 -10.25 L 37 -7.84375 C 34.601562 -4.539062 31.96875 -2.257812 29.09375 -1 C 26.226562 0.25 23.394531 0.875 20.59375 0.875 Z M 20.59375 0.875 "/></g></g></g><g fill="#534780" fill-opacity="1"><g transform="translate(439.172711, 218.339429)"><g><path d="M 2.71875 -3.59375 C 3.695312 -3.632812 4.441406 -3.753906 4.953125 -3.953125 C 5.460938 -4.148438 5.863281 -4.578125 6.15625 -5.234375 C 6.445312 -5.890625 6.59375 -6.925781 6.59375 -8.34375 L 6.59375 -29.203125 C 6.59375 -31.234375 6.664062 -32.867188 6.8125 -34.109375 L 2.71875 -33.9375 L 2.71875 -38.140625 L 18.359375 -38.140625 L 18.359375 -34.546875 C 17.378906 -34.503906 16.632812 -34.382812 16.125 -34.1875 C 15.613281 -33.988281 15.210938 -33.5625 14.921875 -32.90625 C 14.640625 -32.25 14.5 -31.210938 14.5 -29.796875 L 14.5 -21.296875 L 29.46875 -21.296875 L 29.46875 -29.203125 C 29.46875 -31.640625 29.539062 -33.273438 29.6875 -34.109375 L 25.609375 -33.9375 L 25.609375 -38.140625 L 41.25 -38.140625 L 41.25 -34.546875 C 40.269531 -34.503906 39.523438 -34.382812 39.015625 -34.1875 C 38.503906 -33.988281 38.101562 -33.5625 37.8125 -32.90625 C 37.519531 -32.25 37.375 -31.210938 37.375 -29.796875 L 37.375 -8.9375 C 37.375 -6.90625 37.300781 -5.269531 37.15625 -4.03125 C 38.320312 -4.132812 39.6875 -4.1875 41.25 -4.1875 L 41.25 0 L 25.609375 0 L 25.609375 -3.59375 C 26.585938 -3.632812 27.332031 -3.753906 27.84375 -3.953125 C 28.351562 -4.148438 28.75 -4.578125 29.03125 -5.234375 C 29.320312 -5.890625 29.46875 -6.925781 29.46875 -8.34375 L 29.46875 -17.15625 L 14.5 -17 L 14.5 -8.9375 C 14.5 -6.90625 14.425781 -5.269531 14.28125 -4.03125 C 15.4375 -4.132812 16.796875 -4.1875 18.359375 -4.1875 L 18.359375 0 L 2.71875 0 Z M 2.71875 -3.59375 "/></g></g></g><g fill="#534780" fill-opacity="1"><g transform="translate(483.128938, 218.339429)"><g><path d="M 20.875 0.875 C 16.507812 0.875 12.910156 -0.0859375 10.078125 -2.015625 C 7.242188 -3.941406 5.171875 -6.410156 3.859375 -9.421875 C 2.554688 -12.441406 1.90625 -15.65625 1.90625 -19.0625 C 1.90625 -22.300781 2.628906 -25.445312 4.078125 -28.5 C 5.535156 -31.550781 7.707031 -34.066406 10.59375 -36.046875 C 13.476562 -38.023438 16.957031 -39.015625 21.03125 -39.015625 C 25.207031 -39.015625 28.71875 -38.023438 31.5625 -36.046875 C 34.414062 -34.066406 36.53125 -31.550781 37.90625 -28.5 C 39.289062 -25.445312 39.984375 -22.300781 39.984375 -19.0625 C 39.984375 -15.90625 39.253906 -12.789062 37.796875 -9.71875 C 36.347656 -6.65625 34.179688 -4.125 31.296875 -2.125 C 28.410156 -0.125 24.9375 0.875 20.875 0.875 Z M 21.40625 -3.109375 C 23.769531 -3.109375 25.695312 -3.851562 27.1875 -5.34375 C 28.675781 -6.832031 29.75 -8.71875 30.40625 -11 C 31.0625 -13.289062 31.390625 -15.671875 31.390625 -18.140625 C 31.390625 -23.296875 30.476562 -27.398438 28.65625 -30.453125 C 26.84375 -33.503906 24.15625 -35.03125 20.59375 -35.03125 C 18.195312 -35.03125 16.234375 -34.265625 14.703125 -32.734375 C 13.179688 -31.210938 12.09375 -29.289062 11.4375 -26.96875 C 10.789062 -24.644531 10.46875 -22.226562 10.46875 -19.71875 C 10.46875 -17.175781 10.828125 -14.632812 11.546875 -12.09375 C 12.273438 -9.550781 13.460938 -7.414062 15.109375 -5.6875 C 16.765625 -3.96875 18.863281 -3.109375 21.40625 -3.109375 Z M 21.40625 -3.109375 "/></g></g></g><g transform="matrix(1, 0, 0, 1, 331, 235)"><g clip-path="url(#532ae73fe5)"><g fill="#7568a6" fill-opacity="1"><g transform="translate(1.293642, 24.303138)"><g><path d="M 19.890625 -22.296875 L 19.890625 -20.046875 L 11.90625 -20.046875 L 11.90625 0.03125 L 9.15625 0.03125 L 9.15625 -20.046875 L 1.109375 -20.046875 L 1.109375 -22.296875 Z M 19.890625 -22.296875 "/></g></g></g><g fill="#7568a6" fill-opacity="1"><g transform="translate(43.471205, 24.303138)"><g><path d="M 18.046875 -22.296875 L 20.796875 -22.296875 L 20.796875 0 L 18.046875 0 L 18.046875 -10.390625 L 5.0625 -10.390625 L 5.0625 0 L 2.28125 0 L 2.28125 -22.296875 L 5.0625 -22.296875 L 5.0625 -12.640625 L 18.046875 -12.640625 Z M 18.046875 -22.296875 "/></g></g></g><g fill="#7568a6" fill-opacity="1"><g transform="translate(87.727479, 24.303138)"><g><path d="M 5.0625 -2.25 L 18.875 -2.25 L 18.875 0 L 2.28125 0 L 2.28125 -22.296875 L 18.78125 -22.296875 L 18.78125 -20.046875 L 5.0625 -20.046875 L 5.0625 -12.578125 L 17.765625 -12.578125 L 17.765625 -10.359375 L 5.0625 -10.359375 Z M 5.0625 -2.25 "/></g></g></g><g fill="#7568a6" fill-opacity="1"><g transform="translate(129.871517, 24.303138)"><g><path d="M 18.8125 -5.90625 L 18.8125 -3.546875 C 18.8125 -2.722656 18.859375 -2.03125 18.953125 -1.46875 C 19.054688 -0.914062 19.15625 -0.425781 19.25 0 L 16.53125 0 C 16.414062 -0.375 16.316406 -0.84375 16.234375 -1.40625 C 16.160156 -1.96875 16.125 -2.648438 16.125 -3.453125 L 16.125 -5.5 C 16.125 -7.082031 15.707031 -8.226562 14.875 -8.9375 C 14.050781 -9.644531 12.867188 -10 11.328125 -10 L 5.0625 -10 L 5.0625 0 L 2.28125 0 L 2.28125 -22.296875 L 12.671875 -22.296875 C 14.972656 -22.296875 16.6875 -21.765625 17.8125 -20.703125 C 18.945312 -19.640625 19.515625 -18.21875 19.515625 -16.4375 C 19.515625 -14.9375 19.101562 -13.691406 18.28125 -12.703125 C 17.46875 -11.722656 16.4375 -11.085938 15.1875 -10.796875 C 15.90625 -10.597656 16.53125 -10.320312 17.0625 -9.96875 C 17.601562 -9.625 18.03125 -9.132812 18.34375 -8.5 C 18.65625 -7.863281 18.8125 -7 18.8125 -5.90625 Z M 12.34375 -12.078125 C 13.90625 -12.078125 15.003906 -12.441406 15.640625 -13.171875 C 16.273438 -13.910156 16.59375 -14.921875 16.59375 -16.203125 C 16.59375 -17.492188 16.25 -18.457031 15.5625 -19.09375 C 14.882812 -19.726562 13.820312 -20.046875 12.375 -20.046875 L 5.0625 -20.046875 L 5.0625 -12.078125 Z M 12.34375 -12.078125 "/></g></g></g><g fill="#7568a6" fill-opacity="1"><g transform="translate(172.719629, 24.303138)"><g><path d="M 19.453125 0 L 17.265625 -5.703125 L 6.203125 -5.703125 L 4.03125 0 L 1.234375 0 L 9.6875 -22.296875 L 13.8125 -22.296875 L 22.265625 0 Z M 7.046875 -7.953125 L 16.4375 -7.953125 L 11.734375 -20.28125 Z M 7.046875 -7.953125 "/></g></g></g><g fill="#7568a6" fill-opacity="1"><g transform="translate(217.311169, 24.303138)"><g><path d="M 12.5 -22.296875 C 14.113281 -22.296875 15.410156 -22.003906 16.390625 -21.421875 C 17.378906 -20.835938 18.101562 -20.054688 18.5625 -19.078125 C 19.019531 -18.097656 19.25 -17.003906 19.25 -15.796875 C 19.25 -14.609375 19.019531 -13.515625 18.5625 -12.515625 C 18.101562 -11.523438 17.367188 -10.734375 16.359375 -10.140625 C 15.359375 -9.546875 14.03125 -9.25 12.375 -9.25 L 5.09375 -9.25 L 5.09375 0 L 2.28125 0 L 2.28125 -22.296875 Z M 11.796875 -11.5 C 13.453125 -11.5 14.617188 -11.894531 15.296875 -12.6875 C 15.984375 -13.476562 16.328125 -14.515625 16.328125 -15.796875 C 16.328125 -17.109375 15.988281 -18.144531 15.3125 -18.90625 C 14.644531 -19.664062 13.507812 -20.046875 11.90625 -20.046875 L 5.09375 -20.046875 L 5.09375 -11.5 Z M 11.796875 -11.5 "/></g></g></g><g fill="#7568a6" fill-opacity="1"><g transform="translate(259.119924, 24.303138)"><g><path d="M 17.375 -22.296875 L 20.484375 -22.296875 L 12.109375 -7.8125 L 12.109375 0 L 9.328125 0 L 9.328125 -7.8125 L 0.9375 -22.296875 L 4.125 -22.296875 L 9.1875 -13.078125 C 9.4375 -12.585938 9.6875 -12.109375 9.9375 -11.640625 C 10.195312 -11.171875 10.460938 -10.703125 10.734375 -10.234375 C 10.972656 -10.703125 11.226562 -11.171875 11.5 -11.640625 C 11.769531 -12.109375 12.023438 -12.585938 12.265625 -13.078125 Z M 17.375 -22.296875 "/></g></g></g></g></g><g clip-path="url(#79b40f4765)"><g clip-path="url(#09fe19f8eb)"><g clip-path="url(#bd32e2cfa5)"><g transform="matrix(1, 0, 0, 1, 89, 90)"><g clip-path="url(#d98c7d57d8)"><g clip-path="url(#a196bfb4c2)"><g clip-path="url(#8ba240b5e9)"><g clip-path="url(#de022b58a8)"><g clip-path="url(#3a16fe7041)"><g clip-path="url(#a0635bd8d5)"><path fill="url(#f79193b6cc)" d="M 61.871094 -102.058594 L -97.269531 151.167969 L 160.113281 312.925781 L 319.257812 59.695312 Z M 61.871094 -102.058594 " fill-rule="nonzero"/></g></g></g></g></g></g></g></g></g></g><g transform="matrix(1, 0, 0, 1, 100, 100)"><g clip-path="url(#6fd338f180)"><g fill="#feffff" fill-opacity="1"><g transform="translate(1.857458, 133.280307)"><g><path d="M 22.1875 1.625 C 18.25 1.625 14.597656 1.195312 11.234375 0.34375 C 7.878906 -0.5 5.285156 -1.664062 3.453125 -3.15625 C 0.941406 -5.257812 -0.3125 -7.941406 -0.3125 -11.203125 C -0.3125 -13.160156 0.210938 -15.242188 1.265625 -17.453125 C 2.316406 -19.660156 3.863281 -21.882812 5.90625 -24.125 C 7.394531 -22.769531 9.171875 -21.679688 11.234375 -20.859375 C 13.304688 -20.046875 15.53125 -19.640625 17.90625 -19.640625 C 20.5625 -19.640625 22.734375 -20.453125 24.421875 -22.078125 C 26.117188 -23.710938 26.96875 -26.09375 26.96875 -29.21875 L 26.96875 -73.796875 C 27.71875 -73.929688 29.191406 -74.082031 31.390625 -74.25 C 33.597656 -74.414062 35.519531 -74.5 37.15625 -74.5 C 41.5 -74.5 44.6875 -74.210938 46.71875 -73.640625 C 48.75 -73.066406 50.140625 -72.046875 50.890625 -70.578125 C 51.640625 -69.117188 52.015625 -66.832031 52.015625 -63.71875 L 52.015625 -27.78125 C 52.015625 -17.8125 49.382812 -10.414062 44.125 -5.59375 C 38.863281 -0.78125 31.550781 1.625 22.1875 1.625 Z M 22.1875 1.625 "/></g></g></g></g></g><g transform="matrix(1, 0, 0, 1, 159, 100)"><g clip-path="url(#adfa0eafd7)"><g fill="#feffff" fill-opacity="1"><g transform="translate(0.473114, 129.921424)"><g><path d="M 41.484375 -72.484375 C 49.929688 -72.484375 56.4375 -71.0625 61 -68.21875 C 62.84375 -67.09375 64.242188 -65.65625 65.203125 -63.90625 C 66.160156 -62.164062 66.640625 -60.269531 66.640625 -58.21875 C 66.640625 -55.90625 65.992188 -53.625 64.703125 -51.375 C 63.421875 -49.132812 61.59375 -47.222656 59.21875 -45.640625 C 57.695312 -47.222656 55.515625 -48.640625 52.671875 -49.890625 C 49.835938 -51.148438 46.867188 -51.78125 43.765625 -51.78125 C 40.859375 -51.78125 38.234375 -51.117188 35.890625 -49.796875 C 33.546875 -48.484375 31.710938 -46.601562 30.390625 -44.15625 C 29.078125 -41.71875 28.421875 -38.878906 28.421875 -35.640625 C 28.421875 -32.410156 29.078125 -29.570312 30.390625 -27.125 C 31.710938 -24.6875 33.59375 -22.804688 36.03125 -21.484375 C 38.476562 -20.160156 41.351562 -19.5 44.65625 -19.5 C 47.894531 -19.5 50.898438 -20.207031 53.671875 -21.625 C 56.441406 -23.050781 58.816406 -24.6875 60.796875 -26.53125 C 62.910156 -24.550781 64.523438 -22.457031 65.640625 -20.25 C 66.765625 -18.039062 67.328125 -15.878906 67.328125 -13.765625 C 67.328125 -11.785156 66.847656 -9.921875 65.890625 -8.171875 C 64.929688 -6.421875 63.5 -4.914062 61.59375 -3.65625 C 59.34375 -2.207031 56.484375 -1.035156 53.015625 -0.140625 C 49.554688 0.742188 45.484375 1.1875 40.796875 1.1875 C 32.210938 1.1875 25.097656 -0.3125 19.453125 -3.3125 C 13.804688 -6.320312 9.644531 -10.546875 6.96875 -15.984375 C 4.300781 -21.429688 2.96875 -27.851562 2.96875 -35.25 C 2.96875 -42.96875 4.550781 -49.613281 7.71875 -55.1875 C 10.882812 -60.769531 15.375 -65.046875 21.1875 -68.015625 C 27 -70.992188 33.765625 -72.484375 41.484375 -72.484375 Z M 41.484375 -72.484375 "/></g></g></g></g></g><g transform="matrix(1, 0, 0, 1, 228, 100)"><g clip-path="url(#d21d5b25a5)"><g fill="#feffff" fill-opacity="1"><g transform="translate(0.796693, 133.280307)"><g><path d="M 67.28125 -73.28125 C 67.414062 -72.257812 67.53125 -70.953125 67.625 -69.359375 C 67.726562 -67.765625 67.78125 -66.320312 67.78125 -65.03125 C 67.78125 -61.300781 67.492188 -58.535156 66.921875 -56.734375 C 66.347656 -54.941406 65.347656 -53.722656 63.921875 -53.078125 C 62.492188 -52.429688 60.320312 -52.109375 57.40625 -52.109375 L 47.015625 -52.109375 L 47.015625 0.515625 C 46.273438 0.648438 44.800781 0.800781 42.59375 0.96875 C 40.382812 1.132812 38.46875 1.21875 36.84375 1.21875 C 32.5 1.21875 29.304688 0.925781 27.265625 0.34375 C 25.234375 -0.226562 23.84375 -1.242188 23.09375 -2.703125 C 22.351562 -4.160156 21.984375 -6.445312 21.984375 -9.5625 L 21.984375 -52.109375 L 1.53125 -52.109375 C 1.394531 -53.128906 1.273438 -54.4375 1.171875 -56.03125 C 1.066406 -57.625 1.015625 -59.066406 1.015625 -60.359375 C 1.015625 -64.085938 1.300781 -66.847656 1.875 -68.640625 C 2.457031 -70.441406 3.457031 -71.664062 4.875 -72.3125 C 6.300781 -72.957031 8.476562 -73.28125 11.40625 -73.28125 Z M 67.28125 -73.28125 "/></g></g></g></g></g><g clip-path="url(#c37acfa46b)"><g clip-path="url(#71dabba9b8)"><g transform="matrix(1, 0, 0, 1, 172, 194)"><g clip-path="url(#bb4667faae)"><g clip-path="url(#89763bf16d)"><g clip-path="url(#17b3dd39e6)"><rect x="-337" width="1080" fill="#ffffff" height="539.999987" y="-276.499998" fill-opacity="1"/></g></g></g></g></g></g><g clip-path="url(#f7db5c6b61)"><g clip-path="url(#39383fc903)"><g transform="matrix(1, 0, 0, 1, 142, 165)"><g clip-path="url(#05d23a73a0)"><g clip-path="url(#a6eb28ba66)"><g clip-path="url(#f7f67a8e56)"><rect x="-307" width="1080" fill="#ffffff" height="539.999987" y="-247.499998" fill-opacity="1"/></g></g></g></g></g></g><g clip-path="url(#a608a670bc)"><g clip-path="url(#31011d33e7)"><g transform="matrix(1, 0, 0, 1, 214, 171)"><g clip-path="url(#165fda72c8)"><g clip-path="url(#46f7be515c)"><g clip-path="url(#e40b38fdae)"><rect x="-379" width="1080" fill="#ffffff" height="539.999987" y="-253.499998" fill-opacity="1"/></g></g></g></g></g></g></svg>